<svg width="50" height="64" viewBox="0 0 50 64" fill="none" xmlns="http://www.w3.org/2000/svg">
<path fill-rule="evenodd" clip-rule="evenodd" d="M10.2458 22.8603C13.3254 23.764 21.6216 24.8694 30.17 22.0618C34.1653 23.6153 41.9668 30.3382 41.2111 44.8015H31.3755H11.2879C11.1397 48.3493 12.9767 55.4449 21.5095 55.4449C26.5746 55.4449 29.1968 52.9446 30.4357 50.1704H40.3528C39.4244 54.7803 34.3561 64.0001 21.5095 64.0001C8.66285 64.0001 2.52791 54.7803 1.06628 50.1704C-0.78562 43.9718 -1.54236 29.8317 10.2458 22.8603ZM11.2891 37.5308H30.4369C30.0797 34.552 27.5575 28.5945 20.3271 28.5945C13.0967 28.5945 11.2891 34.552 11.2891 37.5308Z" fill="#E8EEF3"/>
<path d="M5.41016 18.515L7.00039 13.1355C27.16 20.2739 41.102 7.35283 45.553 0L50 3.37041C36.0076 24.1652 14.4433 22.1313 5.41016 18.515Z" fill="#E8EEF3"/>
</svg>
