<svg width="1818" height="844" viewBox="0 0 1818 844" fill="none" xmlns="http://www.w3.org/2000/svg">
<g filter="url(#filter0_f_2651_654)">
<path d="M504.8 464.006C516.4 587.606 738.634 600.506 848.3 591.506C975.3 575.506 1033.3 435.506 1126.8 445.006C1220.3 454.506 991.801 691.506 1387.8 521.506C1783.8 351.506 1421.3 375.006 1282.8 286.006C1144.3 197.006 1021.8 333.506 859.801 397.006C697.801 460.506 611.3 279.506 504.8 254.006C398.3 228.506 230.8 330.506 251.8 397.006C272.8 463.506 490.3 309.506 504.8 464.006Z" fill="url(#paint0_linear_2651_654)"/>
</g>
<defs>
<filter id="filter0_f_2651_654" x="0" y="0" width="1817.36" height="843.782" filterUnits="userSpaceOnUse" color-interpolation-filters="sRGB">
<feFlood flood-opacity="0" result="BackgroundImageFix"/>
<feBlend mode="normal" in="SourceGraphic" in2="BackgroundImageFix" result="shape"/>
<feGaussianBlur stdDeviation="125" result="effect1_foregroundBlur_2651_654"/>
</filter>
<linearGradient id="paint0_linear_2651_654" x1="250" y1="421.891" x2="1567.36" y2="421.891" gradientUnits="userSpaceOnUse">
<stop stop-color="#232B4D"/>
<stop offset="1" stop-color="#9587AB"/>
</linearGradient>
</defs>
</svg>
