<svg width="150" height="150" viewBox="0 0 150 150" fill="none" xmlns="http://www.w3.org/2000/svg">
<g clip-path="url(#clip0_157_2755)">
<path d="M147.749 93.143C137.732 133.322 97.0348 157.772 56.8512 147.755C16.6864 137.738 -7.76599 97.0407 2.25354 56.8641C12.266 16.6805 52.9606 -7.77417 93.1325 2.24302C133.314 12.2602 157.766 52.9618 147.749 93.143Z" fill="#F7931A"/>
<path d="M108.069 64.3148C109.56 54.3352 101.961 48.9703 91.5714 45.3914L94.9417 31.8727L86.7105 29.8219L83.4292 42.9844C81.2683 42.4453 79.0464 41.9367 76.8386 41.4328L80.1433 28.1836L71.9191 26.1328L68.5464 39.6469C66.7558 39.2391 64.998 38.8359 63.2917 38.4117L63.3011 38.3695L51.9527 35.5359L49.7636 44.325C49.7636 44.325 55.8691 45.7242 55.7402 45.8109C59.073 46.643 59.6777 48.8484 59.5746 50.5969L55.7355 65.9977C55.9652 66.0563 56.2628 66.1406 56.591 66.2719L55.7238 66.0563L50.3402 87.6305C49.9324 88.643 48.8988 90.1617 46.5691 89.5852C46.6511 89.7047 40.5878 88.0922 40.5878 88.0922L36.5027 97.5141L47.2136 100.184C49.2058 100.683 51.1582 101.205 53.0777 101.698L49.6722 115.373L57.8917 117.424L61.2667 103.896C63.5097 104.505 65.6894 105.068 67.8222 105.598L64.4613 119.062L72.6902 121.113L76.0956 107.466C90.1277 110.121 100.682 109.05 105.118 96.3609C108.697 86.1422 104.943 80.2477 97.5597 76.4016C102.936 75.157 106.989 71.6203 108.069 64.3148ZM89.2652 90.6797C86.7199 100.898 69.5167 95.3766 63.9363 93.9891L68.455 75.8742C74.0331 77.2664 91.916 80.0227 89.2652 90.6797ZM91.8081 64.1672C89.4878 73.4625 75.1675 68.7398 70.5199 67.582L74.6167 51.1523C79.2644 52.3102 94.2269 54.4711 91.8081 64.1672Z" fill="white"/>
</g>
<defs>
<clipPath id="clip0_157_2755">
<rect width="150" height="150" fill="white"/>
</clipPath>
</defs>
</svg>
