<svg width="80" height="80" viewBox="0 0 80 80" fill="none" xmlns="http://www.w3.org/2000/svg">
<path d="M40 78.8281C61.4442 78.8281 78.8281 61.4442 78.8281 40C78.8281 18.5558 61.4442 1.17188 40 1.17188C18.5558 1.17188 1.17188 18.5558 1.17188 40C1.17188 61.4442 18.5558 78.8281 40 78.8281Z" fill="#4956FC"/>
<path d="M40 71.0156C57.1295 71.0156 71.0156 57.1295 71.0156 40C71.0156 22.8705 57.1295 8.98438 40 8.98438C22.8705 8.98438 8.98438 22.8705 8.98438 40C8.98438 57.1295 22.8705 71.0156 40 71.0156Z" fill="#5E8DF7"/>
<path d="M54.5937 38.1437L52.1656 39.5219L39.8203 44.1812L25.4062 38.1437L39.8203 13.4437L54.5937 38.1437Z" fill="#FEFEFE"/>
<path d="M54.5937 38.1437L39.8203 46.525L25.4062 38.1437L39.8203 31.4141L54.5937 38.1437Z" fill="#C0CBF8"/>
<path d="M54.5937 44.0375L39.8203 66.5562L25.4062 44.0375L39.8203 52.4172L54.5937 44.0375Z" fill="#FEFEFE"/>
<path d="M54.5937 44.0375L39.8203 66.5562V52.4172L54.5937 44.0375ZM54.5937 38.1437L52.1656 39.5219L39.8203 32.4625V13.4437L54.5937 38.1437Z" fill="#C0CBF8"/>
<path d="M54.5937 38.1437L39.8203 46.525V31.4141L54.5937 38.1437Z" fill="#8095F0"/>
</svg>
