<svg width="80" height="80" viewBox="0 0 80 80" fill="none" xmlns="http://www.w3.org/2000/svg">
<g clip-path="url(#clip0_177_2355)">
<path d="M80 40C80 17.9086 62.0914 0 40 0C17.9086 0 0 17.9086 0 40C0 62.0914 17.9086 80 40 80C62.0914 80 80 62.0914 80 40Z" fill="black"/>
<path d="M34.7563 44.6594C33.7469 44.6594 32.7407 44.6656 31.7313 44.6687C31.3001 44.6687 30.8719 44.6687 30.4407 44.6656C30.0782 44.3718 29.7688 44.0187 29.4532 43.6781C29.1001 43.2969 28.7126 42.9562 28.3469 42.5906C28.0063 42.25 27.6532 41.9219 27.3469 41.5531C27.1751 41.3469 26.9501 41.1969 26.7688 41.0031C25.8719 40.0562 24.9126 39.175 24.0094 38.2375C23.4313 37.6344 22.8251 37.0562 22.2313 36.4687C21.9313 36.1718 21.6313 35.875 21.3501 35.5625C21.3032 35.5094 21.1376 35.4062 21.3657 35.3531C21.9626 35.3531 22.5626 35.3531 23.1594 35.3531C23.2313 35.3531 23.3063 35.3719 23.3751 35.3344C24.3813 35.3344 25.3907 35.3406 26.3969 35.3406C27.7001 35.3406 29.0032 35.3437 30.3063 35.3469C30.3063 35.375 30.2907 35.3968 30.2657 35.4093C30.0657 35.4687 29.8626 35.4281 29.6594 35.4406C29.0188 35.45 28.3751 35.45 27.7344 35.4406C27.1344 35.4469 26.5344 35.45 25.9344 35.4406C25.2344 35.425 24.5313 35.4344 23.8313 35.4344C23.8188 35.525 23.8782 35.5594 23.9157 35.5937C24.5813 36.2125 25.2032 36.8781 25.8532 37.5156C26.5938 38.2406 27.3313 38.9656 28.0469 39.7156C28.3782 40.0625 28.7282 40.3937 29.0626 40.7406C29.3657 41.0531 29.7376 41.2937 29.9876 41.6625C30.1001 41.8281 30.2876 41.925 30.4251 42.0719C30.7188 42.3844 31.0376 42.6687 31.3094 43.0031C31.3938 43.1062 31.5251 43.1594 31.6188 43.2562C32.0032 43.6469 32.3813 44.0406 32.7501 44.4468C32.8469 44.5531 32.9563 44.575 33.0876 44.575C33.5626 44.575 34.0376 44.5719 34.5094 44.575C34.5969 44.575 34.7063 44.5375 34.7532 44.6625L34.7563 44.6594ZM48.7688 58.6719C47.8938 58.6719 47.0188 58.6719 46.1438 58.6719C45.6251 58.6437 45.1063 58.6656 44.5876 58.6625C44.4657 58.6625 44.3876 58.6281 44.3126 58.525C44.1407 58.3031 43.9219 58.1187 43.7251 57.9187C43.1876 57.375 42.6563 56.8281 42.1032 56.3031C41.3719 55.6094 40.7157 54.8469 39.9719 54.1656C39.4751 53.7094 39.0344 53.1969 38.5438 52.7344C37.8594 52.0906 37.2313 51.3875 36.5469 50.7437C36.1907 50.4094 35.8626 50.0469 35.5126 49.7031C35.4657 49.6562 35.4157 49.6094 35.3751 49.5594C35.3376 49.5125 35.2969 49.4594 35.3282 49.4C35.3563 49.3437 35.4219 49.3656 35.4688 49.3656C35.8844 49.3656 36.3001 49.3656 36.7157 49.3656C36.7594 49.3656 36.8063 49.3719 36.8469 49.3531C37.1719 49.3531 37.5001 49.3469 37.8251 49.3469C42.1469 49.3469 46.4688 49.3469 50.7876 49.35C53.1063 49.35 55.4282 49.35 57.7469 49.3531C57.8344 49.3531 57.9251 49.3469 58.0126 49.3437C58.0344 49.3719 58.0282 49.3937 57.9969 49.4125C57.8501 49.4781 57.6938 49.45 57.5407 49.4531C57.1813 49.4531 56.8219 49.4594 56.4626 49.45C55.7376 49.4625 55.0157 49.4594 54.2907 49.45C53.5657 49.4562 52.8376 49.4594 52.1126 49.45C51.4751 49.4594 50.8376 49.4594 50.2001 49.45C49.5469 49.4594 48.8938 49.4594 48.2407 49.45C47.4844 49.4594 46.7282 49.4594 45.9719 49.45C45.2157 49.4594 44.4594 49.4594 43.7032 49.45C43.0532 49.4625 42.4001 49.4562 41.7501 49.45C41.1344 49.4531 40.5188 49.4594 39.9063 49.45C39.2126 49.4312 38.5157 49.4469 37.8063 49.4594C38.0126 49.6437 38.1469 49.8875 38.3469 50.0656C38.9907 50.6437 39.5532 51.3062 40.1813 51.9C40.4751 52.1781 40.7688 52.4625 41.0594 52.7469C41.3751 53.0562 41.6813 53.3781 42.0032 53.6844C42.3376 54.0062 42.6438 54.3562 42.9876 54.6719C43.4032 55.0531 43.7469 55.5062 44.1626 55.8844C44.7501 56.4156 45.2938 56.9906 45.8563 57.5469C46.1376 57.8281 46.4094 58.125 46.6876 58.4125C46.8032 58.5344 46.9344 58.5875 47.1001 58.5844C47.5751 58.5781 48.0469 58.5781 48.5219 58.5844C48.6094 58.5844 48.7188 58.5469 48.7657 58.6719H48.7688Z" fill="#6474D7"/>
<path d="M48.5969 35.3375C49.2501 35.3312 49.9032 35.325 50.5563 35.3219C50.6719 35.2969 50.7907 35.3156 50.9094 35.3094C51.1407 35.4469 51.3126 35.65 51.4938 35.8406C52.3563 36.7469 53.2501 37.6187 54.1344 38.4969C54.5969 38.9562 55.0407 39.4344 55.5157 39.875C55.9876 40.3125 56.4219 40.7875 56.8844 41.2344C57.2563 41.5937 57.6157 41.9656 57.9751 42.3406C58.5594 42.95 59.1719 43.5312 59.7657 44.1312C59.8751 44.2406 59.9782 44.3594 60.0813 44.475C60.1407 44.5406 60.2126 44.6344 60.0344 44.65C59.3782 44.65 58.7219 44.65 58.0626 44.65C57.9626 44.65 57.8657 44.65 57.7657 44.65C57.5469 44.4344 57.3219 44.2281 57.1063 44.0062C56.7157 43.6 56.3438 43.1812 55.9001 42.8281C55.7688 42.7219 55.6688 42.5781 55.5532 42.4531C55.1782 42.0562 54.7938 41.6656 54.4001 41.2844C53.5219 40.4375 52.7001 39.5344 51.8126 38.6969C51.2001 38.1156 50.6344 37.4937 50.0219 36.9125C49.5688 36.4844 49.1657 36.0094 48.7126 35.5844C48.6438 35.5219 48.5282 35.4656 48.5907 35.3312L48.5969 35.3375Z" fill="#30A4AF"/>
<path d="M57.7157 44.6219C57.8188 44.625 57.9219 44.6313 58.025 44.6344C58.0375 44.6469 58.0407 44.6563 58.0313 44.6594C58.025 44.6625 58.0219 44.6656 58.0125 44.6656C57.925 44.6656 57.8344 44.6563 57.7469 44.6563C51.1063 44.6563 44.4657 44.6625 37.8219 44.6625C36.8 44.6625 35.7782 44.6594 34.7532 44.6563C34.5813 44.5844 34.4032 44.6282 34.2282 44.625C33.8219 44.6188 33.4125 44.6188 33.0063 44.625C32.8938 44.625 32.8063 44.5969 32.7344 44.5125C32.3657 44.0907 31.9938 43.6688 31.5782 43.2969C31.1375 42.9032 30.775 42.425 30.3219 42.05C29.975 41.7625 29.7125 41.3969 29.3719 41.1032C29.0063 40.7844 28.6782 40.4063 28.3282 40.0625C27.8625 39.6032 27.4157 39.1282 26.9438 38.6719C26.6094 38.3469 26.2625 38.0282 25.9532 37.675C25.7657 37.4594 25.5282 37.2907 25.3313 37.0844C24.8469 36.5688 24.3282 36.0844 23.8282 35.5844C23.7782 35.5344 23.6938 35.4813 23.725 35.4032C23.7532 35.3344 23.8438 35.3719 23.9063 35.3719C24.5594 35.3719 25.2125 35.3719 25.8625 35.3719C26.5375 36.0157 27.1938 36.6782 27.8469 37.3469C28.3844 37.8969 28.9532 38.4188 29.4844 38.9719C29.9594 39.4688 30.4594 39.9438 30.9344 40.4438C31.2282 40.7532 31.5313 41.0594 31.8657 41.3313C32.1875 41.5938 32.4407 41.925 32.7375 42.2125C33.1313 42.5938 33.4969 43 33.8938 43.375C34.2375 43.7 34.5782 44.0282 34.8782 44.3969C34.9625 44.5032 35.0532 44.5688 35.1938 44.5688C35.7719 44.5625 36.35 44.5782 36.9282 44.5563C37.5563 44.55 38.1844 44.5469 38.8094 44.5563C39.5625 44.5469 40.3188 44.5469 41.0719 44.5563C41.8125 44.5469 42.5532 44.5469 43.2969 44.5563C43.9657 44.5438 44.6313 44.5469 45.3 44.5563C45.9532 44.55 46.6063 44.5469 47.2594 44.5563C47.9719 44.5469 48.6813 44.5469 49.3938 44.5563C50.1063 44.5438 50.8157 44.5469 51.5282 44.5563C52.1657 44.55 52.8032 44.55 53.4438 44.5563C54.1563 44.55 54.8688 44.5469 55.5782 44.5563C56.2125 44.5438 56.85 44.55 57.4844 44.5532C57.5657 44.5532 57.6469 44.5594 57.7157 44.6188V44.6219Z" fill="#6078D3"/>
<path d="M36.8468 49.3531C36.5343 49.425 36.2156 49.3688 35.8999 49.3844C35.7593 49.3906 35.6187 49.3844 35.4781 49.3844C35.4374 49.3844 35.3812 49.3687 35.3624 49.4219C35.3437 49.4719 35.3906 49.5031 35.4218 49.5313C35.7531 49.825 36.0374 50.1656 36.3531 50.475C36.9312 51.0438 37.5124 51.6094 38.0687 52.2031C38.4562 52.6188 38.8843 52.9969 39.2874 53.3969C39.9249 54.0313 40.5593 54.6656 41.1937 55.3031C42.2062 56.3156 43.2343 57.3125 44.2187 58.35C44.4499 58.5938 44.6624 58.6406 44.9531 58.6406C45.3499 58.6406 45.7499 58.5938 46.1437 58.6688C45.0156 58.6688 43.8906 58.6688 42.7624 58.6688C42.5968 58.6438 42.4343 58.6656 42.2687 58.6563C41.9093 58.3281 41.5687 57.9812 41.2281 57.6344C40.7968 57.1969 40.3624 56.7625 39.9249 56.3313C39.6999 56.1063 39.4781 55.8781 39.2624 55.6406C38.9249 55.2688 38.5312 54.9469 38.1874 54.5813C37.8437 54.2156 37.4812 53.8656 37.1187 53.5188C36.6687 53.0906 36.2656 52.6156 35.8187 52.1844C35.5437 51.9188 35.2406 51.6781 34.9999 51.375C34.7718 51.0844 34.4531 50.8781 34.2062 50.6C33.8937 50.2438 33.5437 49.925 33.2156 49.5844C33.1656 49.5313 33.0874 49.4688 33.1156 49.3969C33.1468 49.3125 33.2468 49.3594 33.3156 49.3563C33.6624 49.3438 34.0124 49.3687 34.3593 49.3438C35.1906 49.3438 36.0187 49.3438 36.8499 49.3438L36.8468 49.3531Z" fill="#6970DB"/>
<path d="M52.0655 30.65H49.7968C49.6436 30.5531 49.5343 30.4094 49.4155 30.2813C48.7249 29.5188 47.9718 28.8156 47.2405 28.0938C46.9593 27.8125 46.6874 27.5156 46.403 27.2406C45.8655 26.7219 45.3499 26.1813 44.8093 25.6656C44.1061 24.9906 43.4499 24.2656 42.753 23.5844C42.2624 23.1031 41.7936 22.6 41.278 22.1438C41.0843 21.975 40.9436 21.7531 40.7343 21.5938C40.653 21.5313 40.5468 21.4094 40.7561 21.3406C41.4124 21.3406 42.0686 21.3406 42.7249 21.3406C42.9155 21.3656 43.0405 21.4969 43.153 21.6281C43.4218 21.9344 43.7405 22.1875 44.0218 22.4813C44.4905 22.9719 44.9968 23.4281 45.4593 23.9281C45.678 24.1656 45.8936 24.4125 46.1436 24.6188C46.4874 24.9 46.7593 25.2563 47.078 25.5625C47.6186 26.0844 48.1436 26.625 48.678 27.1563C49.1468 27.625 49.6124 28.1 50.0905 28.5594C50.478 28.9313 50.8499 29.3219 51.2311 29.7031C51.4874 29.9594 51.7624 30.1938 51.9936 30.4719C52.0374 30.525 52.1249 30.5594 52.0686 30.6531L52.0655 30.65Z" fill="#24AFA7"/>
<path d="M49.1718 30.65C47.4406 30.65 45.7093 30.6563 43.9812 30.6563C43.4406 30.6563 42.9031 30.65 42.3625 30.6438C42.0718 30.625 41.7812 30.6406 41.4906 30.6344C41.425 30.6344 41.3843 30.5938 41.3406 30.55C40.7593 29.9281 40.1343 29.3469 39.5343 28.7438C39.0968 28.3031 38.6593 27.8656 38.2187 27.4281C37.3562 26.575 36.5187 25.6969 35.6531 24.8469C35.1781 24.3813 34.7218 23.8938 34.2375 23.4406C33.7562 22.9906 33.3437 22.475 32.8375 22.05C32.6781 21.9188 32.5625 21.7438 32.4 21.6094C32.3375 21.5563 32.3 21.475 32.3375 21.3875C32.3718 21.3063 32.4531 21.3375 32.5156 21.3375C33.1593 21.3406 33.8031 21.325 34.45 21.3469C34.8343 21.6156 35.1062 22.0031 35.4531 22.3188C35.9843 22.8 36.4531 23.3469 36.9656 23.8438C37.55 24.4094 38.125 24.9875 38.7 25.5625C39.1906 26.0531 39.6593 26.5719 40.1687 27.0438C41.1187 27.9281 41.9812 28.8938 42.9375 29.7719C43.1531 29.9688 43.3656 30.1813 43.5437 30.4219C43.6187 30.5219 43.7031 30.5625 43.825 30.5625C44.5218 30.5563 45.2187 30.5719 45.9156 30.55C46.5281 30.5438 47.1406 30.5438 47.7531 30.55C48.1406 30.5438 48.5281 30.5438 48.9156 30.55C49.0093 30.55 49.1281 30.5219 49.175 30.6531L49.1718 30.65Z" fill="#34A0B3"/>
<path d="M57.7155 44.6219C57.003 44.6219 56.2905 44.6219 55.5812 44.6219C55.228 44.2875 54.8843 43.9375 54.5343 43.6C54.0812 43.1625 53.6749 42.6813 53.1905 42.275C53.053 42.1594 52.9593 42.0063 52.8312 41.8813C52.2124 41.2875 51.6155 40.6656 50.9968 40.0688C50.7124 39.7938 50.4468 39.4906 50.1562 39.2188C49.7624 38.85 49.3843 38.4625 49.0062 38.0844C48.5312 37.6094 48.053 37.1344 47.5874 36.6469C47.2468 36.2875 46.853 35.9781 46.5405 35.5938C46.4812 35.5219 46.3562 35.4719 46.4187 35.3406C47.1468 35.3406 47.8718 35.3406 48.5999 35.3406C48.6062 35.3625 48.603 35.3906 48.6155 35.4031C49.0624 35.8594 49.5124 36.3188 49.9624 36.7719C50.1749 36.9844 50.3937 37.1938 50.603 37.4063C50.8187 37.625 51.0218 37.8531 51.2374 38.0688C51.6812 38.5094 52.1343 38.9406 52.578 39.3813C52.903 39.7 53.2405 40.0063 53.5374 40.3469C53.9718 40.85 54.4874 41.2719 54.9343 41.7625C55.5124 42.3969 56.1562 42.9719 56.7718 43.5719C57.0499 43.8438 57.2968 44.1469 57.5968 44.3969C57.6655 44.4531 57.7312 44.5156 57.7155 44.6219Z" fill="#34A1B3"/>
<path d="M27.3345 49.3531C28.0751 49.3531 28.8157 49.3531 29.5563 49.3531C29.8657 49.5938 30.122 49.8907 30.4032 50.1625C30.9157 50.6532 31.3751 51.1969 31.9126 51.6625C32.1313 51.85 32.3157 52.0719 32.5188 52.2781C33.0938 52.8531 33.672 53.4219 34.247 54C34.6126 54.3657 34.972 54.7375 35.3345 55.1094C35.6907 55.475 36.0626 55.8219 36.4313 56.175C36.7032 56.4344 36.9345 56.7344 37.2095 56.9938C37.7251 57.4813 38.2188 57.9907 38.722 58.4907C38.8001 58.5688 38.8782 58.5907 38.9782 58.5907C39.297 58.5907 39.6157 58.5969 39.9345 58.5844C40.072 58.5813 40.2095 58.575 40.3438 58.5844C40.4188 58.5907 40.5095 58.5719 40.5407 58.6719C39.6376 58.6907 38.7313 58.6907 37.8282 58.6719C37.5313 58.6594 37.2345 58.6438 36.9407 58.6719C36.6532 58.7 36.4595 58.5781 36.2938 58.3781C35.9438 57.9563 35.5032 57.6188 35.1345 57.2188C34.7626 56.8157 34.3501 56.4594 33.9876 56.05C33.7126 55.7407 33.3876 55.4813 33.1032 55.1782C33.0188 55.0875 32.9313 54.9969 32.8438 54.9063C32.1563 54.2125 31.4657 53.5219 30.7595 52.8469C30.397 52.5 30.072 52.1125 29.6938 51.7813C29.2313 51.375 28.8657 50.8781 28.4032 50.4719C28.0376 50.15 27.7032 49.7938 27.372 49.4344C27.3501 49.4125 27.3376 49.3875 27.3438 49.3531H27.3345Z" fill="#7466E3"/>
<path d="M48.7687 58.6719C48.6062 58.6 48.4343 58.6438 48.2656 58.6406C47.85 58.6344 47.4343 58.6344 47.0218 58.6406C46.8937 58.6406 46.7968 58.6094 46.7093 58.5125C46.4468 58.2219 46.1687 57.9438 45.8937 57.6688C45.6062 57.3844 45.3124 57.1 45.0374 56.8094C44.5437 56.2875 43.9812 55.8406 43.5125 55.2969C43.2656 55.0094 42.9937 54.7406 42.7 54.4906C42.475 54.3 42.2843 54.0594 42.0718 53.8469C41.9125 53.6844 41.7656 53.5094 41.5843 53.3719C41.3437 53.1938 41.2031 52.925 40.9812 52.7281C40.5312 52.325 40.125 51.8781 39.6875 51.4656C39.2531 51.0563 38.8937 50.5781 38.4187 50.2063C38.1375 49.9875 37.9593 49.6563 37.6218 49.3875H39.8343C40.2093 49.7656 40.6031 50.125 40.9593 50.5219C41.1875 50.775 41.4531 50.9906 41.6843 51.2406C42.2281 51.825 42.8187 52.3656 43.3812 52.9313C44.2468 53.8 45.1281 54.6563 45.9812 55.5375C46.5218 56.0969 47.0906 56.625 47.6218 57.1938C48.0437 57.6469 48.5187 58.0531 48.925 58.5219C48.9968 58.6031 49.1406 58.5469 49.1687 58.6781C49.0343 58.6781 48.9 58.6781 48.7687 58.6781V58.6719Z" fill="#6078D4"/>
<path d="M46.4157 35.3375C46.5938 35.6219 46.8313 35.8531 47.0719 36.075C47.4688 36.4438 47.85 36.8219 48.2157 37.2188C48.3219 37.3344 48.4532 37.4156 48.5532 37.5313C48.9625 38.0031 49.4219 38.4313 49.8657 38.8688C50.1907 39.1875 50.5375 39.4969 50.8532 39.8219C51.25 40.2281 51.6625 40.6156 52.05 41.0313C52.4188 41.4281 52.7969 41.8156 53.1844 42.1875C53.6094 42.5969 54.0094 43.0313 54.4438 43.4313C54.7907 43.75 55.1125 44.0938 55.4469 44.4281C55.5032 44.4844 55.5782 44.5281 55.5813 44.6219C54.8688 44.6219 54.1563 44.6219 53.4438 44.6219C53.0969 44.2813 52.7094 43.9813 52.4 43.6031C52.3594 43.55 52.3125 43.5031 52.2657 43.4563C51.7907 42.9906 51.3032 42.5375 50.8438 42.0594C50.4032 41.6031 49.9594 41.1438 49.5032 40.7031C48.425 39.6594 47.4063 38.5563 46.3219 37.5156C45.7625 36.9781 45.2375 36.4063 44.6625 35.8844C44.5032 35.7375 44.3063 35.5906 44.2844 35.3375C44.9969 35.3375 45.7063 35.3375 46.4188 35.3375H46.4157Z" fill="#389DB6"/>
<path d="M43.7032 49.3875C44.4595 49.3875 45.2157 49.3875 45.972 49.3875C46.297 49.7094 46.6376 50.0156 46.9564 50.3469C47.6814 51.1063 48.4251 51.8531 49.1876 52.5781C49.6064 52.975 50.0095 53.3875 50.4126 53.7969C51.1939 54.5875 51.9782 55.3719 52.7626 56.1594C53.2376 56.6344 53.6907 57.1344 54.2032 57.5688C53.8657 57.925 53.6001 58.3594 53.1282 58.5656C53.0314 58.6094 52.9376 58.6719 52.822 58.6656C52.6501 58.3656 52.372 58.1563 52.1282 57.9281C51.8876 57.7 51.6564 57.4594 51.4189 57.2282C50.797 56.6282 50.1907 56.0125 49.5845 55.4C49.0814 54.8906 48.572 54.3844 48.0782 53.8688C47.5095 53.2782 46.9314 52.6969 46.3314 52.1344C45.9282 51.7563 45.5314 51.3719 45.1595 50.9563C44.8501 50.6094 44.4907 50.3094 44.1626 49.9813C44.0189 49.8344 43.9032 49.6594 43.7314 49.5375C43.6845 49.5063 43.6501 49.4469 43.7001 49.3844L43.7032 49.3875Z" fill="#5583CB"/>
<path d="M26.5718 21.6219C26.7718 21.3812 27.0593 21.3375 27.3374 21.3219C27.7031 21.3 28.0749 21.3219 28.4406 21.3219C28.8906 21.7719 29.3593 22.2 29.7843 22.675C29.9218 22.8312 30.0874 22.9562 30.2343 23.1031C31.1562 24.0312 32.0937 24.9437 33.0124 25.875C33.8874 26.7594 34.7781 27.625 35.6406 28.5219C36.0406 28.9344 36.4437 29.35 36.8687 29.7375C37.1062 29.9531 37.3531 30.175 37.5468 30.4375C37.5906 30.4969 37.7187 30.5937 37.5218 30.6344C36.8656 30.6344 36.2125 30.6344 35.5593 30.6344C35.4843 30.6437 35.4374 30.6 35.3906 30.55C34.7906 29.9281 34.1437 29.3469 33.5531 28.7187C33.1687 28.3094 32.7531 27.925 32.3593 27.5312C31.6625 26.8375 31.0062 26.1031 30.2687 25.45C29.9312 25.1531 29.6687 24.775 29.3218 24.4844C28.9031 24.1312 28.5718 23.6875 28.1562 23.3281C27.8968 23.1031 27.6937 22.8062 27.4281 22.5844C27.1468 22.35 26.9343 22.0531 26.6656 21.8094C26.6156 21.7625 26.5437 21.7156 26.5781 21.625L26.5718 21.6219Z" fill="#4096BB"/>
<path d="M21.2813 35.3656C21.3938 35.575 21.5813 35.7219 21.7407 35.8906C22.1813 36.3563 22.6438 36.8 23.097 37.2531C23.5876 37.7438 24.0751 38.2313 24.5657 38.7219C25.0782 39.2344 25.6251 39.7219 26.1188 40.25C26.8157 40.9938 27.5876 41.6625 28.2532 42.4375C28.4032 42.6125 28.6032 42.7531 28.7688 42.9188C29.0032 43.15 29.2563 43.3594 29.4688 43.6156C29.7032 43.8969 29.9813 44.1438 30.2407 44.4C30.3188 44.4781 30.397 44.5563 30.4407 44.6625C29.7282 44.6625 29.0157 44.6625 28.3063 44.6625C28.1876 44.6063 28.1157 44.4969 28.0376 44.4C27.8251 44.1406 27.5688 43.9281 27.3345 43.6906C26.9282 43.2813 26.5001 42.8938 26.1095 42.4719C25.8376 42.1781 25.5313 41.9219 25.2626 41.6219C24.897 41.2156 24.4938 40.8438 24.1095 40.4563C23.6938 40.0375 23.2595 39.6344 22.8501 39.2094C22.2188 38.5563 21.5657 37.925 20.9282 37.2781C20.4532 36.7938 19.9876 36.3 19.4782 35.8469C19.4282 35.8031 19.3407 35.7719 19.3626 35.6781C19.4688 35.5375 19.5782 35.3969 19.7657 35.3656C20.2688 35.3375 20.772 35.3406 21.2751 35.3656H21.2813Z" fill="#6970DB"/>
<path d="M52.0656 30.65C51.8688 30.4188 51.6875 30.1687 51.4531 29.975C51.2031 29.7688 50.9656 29.5531 50.7656 29.2937C50.6719 29.1719 50.5188 29.0969 50.425 28.9812C50.1469 28.6375 49.8 28.3594 49.4938 28.0469C49.2281 27.775 48.9594 27.5031 48.6875 27.2344C48.3844 26.9406 48.0969 26.6281 47.7906 26.3344C47.5094 26.0656 47.2562 25.7719 46.9625 25.5156C46.7375 25.3188 46.55 25.0781 46.3375 24.8656C46.0875 24.6156 45.8156 24.3906 45.5781 24.1313C45.3156 23.8406 45.0531 23.5469 44.7594 23.2906C44.4469 23.0219 44.1812 22.7063 43.8844 22.425C43.6219 22.175 43.3125 21.9594 43.1094 21.6438C43.0312 21.5219 42.85 21.5187 42.8125 21.3594C42.95 21.3062 43.0906 21.3375 43.2281 21.3375C43.7969 21.3344 44.3688 21.3375 44.9375 21.3375C45.0188 21.3281 45.075 21.3656 45.1281 21.425C45.6938 22.05 46.2969 22.6406 46.9 23.2312C47.3875 23.7062 47.8781 24.1812 48.3563 24.6625C48.8188 25.1281 49.2844 25.5906 49.75 26.0562C50.4969 26.8062 51.2281 27.5688 51.9719 28.3188C52.3094 28.6594 52.6656 28.9812 53 29.325C53.2406 29.575 53.5188 29.7875 53.7125 30.0813C53.4 30.4781 52.9969 30.6813 52.4875 30.6594C52.3469 30.6531 52.2063 30.6531 52.0656 30.65Z" fill="#20B3A3"/>
<path d="M45.0407 21.3656C44.3001 21.3656 43.5563 21.3656 42.8157 21.3656C42.1032 21.3656 41.3907 21.3656 40.6813 21.3656C40.6094 21.4281 40.5188 21.4343 40.4313 21.4343C39.8469 21.4343 39.2657 21.4437 38.6813 21.4281C38.0282 21.4375 37.3751 21.4375 36.7219 21.4281C36.0501 21.4406 35.3751 21.4312 34.7032 21.4343C34.6126 21.4343 34.5251 21.4281 34.4532 21.3656C33.8219 21.3656 33.1938 21.3656 32.5626 21.3656C32.4969 21.3656 32.3969 21.325 32.3751 21.4281C32.3594 21.5031 32.4157 21.5625 32.4719 21.6187C32.8376 21.9719 33.2032 22.325 33.5563 22.6875C33.7688 22.9062 33.9376 23.1719 34.2219 23.3281C34.3563 23.4031 34.4376 23.5594 34.5532 23.675C35.3688 24.475 36.1813 25.2843 36.9813 26.1C37.3907 26.5187 37.8219 26.9187 38.2219 27.3469C38.4626 27.6062 38.7594 27.8062 38.9594 28.1062C39.0188 28.1937 39.1313 28.2437 39.2094 28.3218C39.6469 28.7562 40.0844 29.1937 40.5219 29.6312C40.7719 29.8812 41.0219 30.1344 41.2719 30.3812C41.3407 30.45 41.4001 30.525 41.4376 30.6156C41.1969 30.6687 40.9532 30.6344 40.7094 30.6375C40.3157 30.6437 39.9251 30.6375 39.5313 30.6375C39.4501 30.6469 39.3938 30.6062 39.3407 30.55C38.5969 29.7687 37.8157 29.0218 37.0532 28.2562C36.2376 27.4375 35.4313 26.6125 34.6126 25.7969C33.8157 25.0031 33.0219 24.2094 32.2219 23.4156C31.8251 23.0187 31.4094 22.6406 31.0469 22.2062C30.8469 21.9687 30.5782 21.8 30.3719 21.5625C30.3157 21.4969 30.2063 21.4437 30.2657 21.325C30.5407 21.325 30.8126 21.3219 31.0876 21.3219C35.4751 21.3219 39.8626 21.3219 44.2532 21.3219C48.7532 21.3219 53.2532 21.3281 57.7501 21.3281C57.8376 21.3281 57.9282 21.3219 58.0157 21.3187C58.0344 21.3469 58.0282 21.3687 58.0001 21.3875C57.7251 21.4687 57.4438 21.4125 57.1657 21.425C56.5469 21.4343 55.9282 21.4343 55.3126 21.425C54.6469 21.4343 53.9782 21.4343 53.3126 21.425C52.5719 21.4343 51.8313 21.4343 51.0907 21.425C50.3782 21.4375 49.6688 21.4343 48.9563 21.425C48.3188 21.4312 47.6813 21.4343 47.0407 21.425C46.4594 21.4375 45.8751 21.4281 45.2938 21.4312C45.2032 21.4312 45.1188 21.4094 45.0407 21.3656Z" fill="#389DB6"/>
<path d="M38.675 21.3625C39.3437 21.3625 40.0093 21.3625 40.6781 21.3625C40.6624 21.4656 40.7312 21.525 40.7937 21.5875C41.2562 22.0344 41.7281 22.4781 42.1812 22.9344C42.5093 23.2625 42.8468 23.5812 43.1749 23.9094C43.5499 24.2812 43.8843 24.6969 44.2718 25.0562C44.6437 25.4 45.0031 25.7594 45.3499 26.125C45.7937 26.5906 46.2687 27.0187 46.7124 27.4812C47.0468 27.8312 47.3968 28.1687 47.7437 28.5062C48.4124 29.1531 49.0781 29.8094 49.6999 30.5C49.7374 30.5437 49.7624 30.6 49.7937 30.65C49.5843 30.65 49.3781 30.65 49.1687 30.65C48.9562 30.575 48.7343 30.625 48.5187 30.6156C48.2624 30.6062 48.0062 30.6156 47.7499 30.6156C47.5781 30.5187 47.4999 30.3312 47.3562 30.2031C46.8562 29.7437 46.3843 29.25 45.9031 28.7719C45.5999 28.4687 45.3249 28.1344 45.0062 27.8469C44.5343 27.4187 44.1062 26.95 43.6468 26.5094C43.1906 26.0687 42.7187 25.6406 42.3124 25.15C42.1406 24.9437 41.9062 24.8031 41.7281 24.6062C41.0343 23.8469 40.2593 23.1687 39.5593 22.4125C39.3062 22.1375 39.0499 21.8531 38.7593 21.6125C38.6874 21.5531 38.6125 21.4812 38.675 21.3687V21.3625Z" fill="#28ABAA"/>
<path d="M47.2625 44.6219C46.6094 44.6219 45.9562 44.6219 45.3031 44.6219C45.1 44.4812 44.9781 44.2625 44.7969 44.1C44.4906 43.8219 44.1812 43.5437 43.9187 43.225C43.6937 42.95 43.4219 42.7187 43.1656 42.475C42.8 42.1281 42.4469 41.7719 42.1 41.4062C41.8531 41.1437 41.5969 40.8875 41.3281 40.6469C41.0469 40.3969 40.7937 40.1156 40.525 39.85C39.7781 39.1094 39.0219 38.3781 38.2969 37.6187C37.8219 37.1219 37.3187 36.6562 36.8469 36.1562C36.6687 35.9687 36.4594 35.8125 36.2969 35.6125C36.2406 35.5437 36.1094 35.4469 36.2812 35.35C36.5156 35.3437 36.75 35.3625 36.9844 35.3406C37.2437 35.3375 37.5 35.3312 37.7594 35.3312C39.6656 35.3312 41.575 35.3312 43.4812 35.3312C43.5687 35.3312 43.6594 35.3375 43.7469 35.3375C43.6969 35.4687 43.5781 35.4375 43.4812 35.4375C43.125 35.4437 42.7719 35.4469 42.4156 35.4375C41.7312 35.4469 41.0469 35.4469 40.3625 35.4375C39.6687 35.4156 38.9781 35.4312 38.2812 35.425C38.2812 35.5406 38.3469 35.5844 38.3969 35.6312C38.9094 36.1125 39.4031 36.6125 39.8969 37.1125C40.7719 37.9969 41.6562 38.8719 42.5375 39.7469C42.9375 40.1437 43.3594 40.5187 43.7344 40.9344C44.1125 41.3531 44.5187 41.7406 44.9219 42.1312C45.5812 42.7687 46.1906 43.4562 46.8719 44.0719C46.9937 44.1812 47.1062 44.3 47.2062 44.4281C47.25 44.4844 47.3187 44.5344 47.2594 44.6219H47.2625Z" fill="#488EC1"/>
<path d="M26.5718 21.6219C26.9343 22.05 27.3656 22.4125 27.7437 22.825C28.125 23.2437 28.5718 23.6 28.9343 24.0406C29.1093 24.2562 29.3562 24.4094 29.5406 24.6187C30.0906 25.2375 30.7187 25.775 31.2875 26.3719C31.5468 26.6437 31.7875 26.9469 32.0968 27.1812C32.3281 27.3562 32.4906 27.6219 32.7093 27.8187C33.1625 28.2187 33.5843 28.6531 34.0031 29.0844C34.4406 29.5344 34.9093 29.9531 35.3375 30.4094C35.3906 30.4687 35.4687 30.5125 35.4718 30.6062C35.3968 30.6562 35.3125 30.6312 35.2343 30.6312C34.6187 30.6312 34.0031 30.6312 33.3906 30.6312C33.3093 30.6406 33.2562 30.6 33.1968 30.5437C32.5968 29.9531 32.0218 29.3375 31.4187 28.7469C30.6875 28.0312 29.9718 27.3031 29.25 26.5781C28.3625 25.6844 27.4781 24.7906 26.5781 23.9094C26.2562 23.5937 25.9468 23.2625 25.625 22.9469C25.5656 22.8875 25.475 22.8375 25.5031 22.7281C25.7937 22.4 26.0843 22.075 26.3781 21.75C26.4312 21.6937 26.475 21.6156 26.5718 21.6156V21.6219Z" fill="#4492BF"/>
<path d="M43.7032 49.3875C43.7969 49.5938 43.9876 49.7188 44.1344 49.8719C44.6376 50.3938 45.1626 50.8969 45.6719 51.4125C46.2407 51.9907 46.8626 52.5156 47.4157 53.1031C47.7032 53.4063 48.0001 53.7032 48.2844 54.0094C48.6157 54.3688 48.9563 54.7282 49.3313 55.05C49.5188 55.2125 49.6751 55.4094 49.8594 55.5782C50.2157 55.9094 50.5219 56.2906 50.8813 56.6156C51.3282 57.0219 51.7126 57.4875 52.1719 57.8782C52.3782 58.0532 52.5219 58.2906 52.7563 58.4406C52.8282 58.4875 52.8282 58.5813 52.8219 58.6656C52.1844 58.6938 51.5469 58.6813 50.9094 58.6719C50.4469 58.225 49.9907 57.7719 49.5438 57.3094C49.2219 56.975 48.8938 56.6438 48.5626 56.3188C48.0626 55.8282 47.5501 55.35 47.0782 54.825C46.8063 54.5219 46.5188 54.2344 46.2063 53.9719C45.8751 53.6969 45.6219 53.3438 45.3094 53.05C44.8594 52.6219 44.4376 52.1688 43.9782 51.7532C43.5876 51.4 43.2626 50.9844 42.8751 50.6281C42.5188 50.3063 42.1969 49.9531 41.8688 49.6031C41.8126 49.5406 41.7219 49.4938 41.7469 49.3844C42.4001 49.3844 43.0501 49.3844 43.7032 49.3844V49.3875Z" fill="#587FCE"/>
<path d="M41.7468 49.3875C42.0218 49.65 42.2561 49.9531 42.5374 50.2156C43.0218 50.6656 43.4593 51.1625 43.9249 51.6313C44.4249 52.1281 44.9562 52.5938 45.4343 53.1125C45.8468 53.5594 46.2999 53.9594 46.7249 54.3906C47.1749 54.85 47.6124 55.3188 48.0655 55.7719C48.5374 56.2438 49.0405 56.6844 49.4937 57.1719C49.9343 57.6469 50.4124 58.0906 50.853 58.5656C50.8812 58.5969 50.8937 58.6406 50.9124 58.6813C50.3343 58.6813 49.753 58.6813 49.1749 58.6813C49.0249 58.65 48.9155 58.5875 48.8093 58.4563C48.5562 58.1531 48.2593 57.8844 47.9811 57.6031C47.5061 57.1281 47.0311 56.6531 46.5561 56.1781C46.0218 55.6438 45.4937 55.1094 44.9562 54.5813C44.503 54.1344 44.0687 53.6625 43.6155 53.2188C43.1062 52.7219 42.5811 52.2375 42.078 51.7313C41.753 51.4031 41.4311 51.0688 41.1061 50.7344C40.7155 50.3344 40.3155 49.9406 39.9218 49.5438C39.8812 49.5 39.8374 49.4594 39.8374 49.3938C40.4749 49.3938 41.1124 49.3938 41.7499 49.3938L41.7468 49.3875Z" fill="#5C7CD1"/>
<path d="M42.4125 35.375C42.7875 35.375 43.1594 35.375 43.5344 35.375C43.6063 35.375 43.6813 35.3969 43.7438 35.3406C43.9219 35.3406 44.1032 35.3406 44.2813 35.3406C44.4407 35.5687 44.6 35.7969 44.8313 35.9687C44.9657 36.0687 45.0782 36.2 45.2 36.3187C46.0907 37.2062 46.9907 38.0844 47.8625 38.9906C48.2875 39.4344 48.7157 39.875 49.1594 40.3C49.6125 40.7344 50.0532 41.175 50.4875 41.625C50.8657 42.0156 51.2469 42.4094 51.6407 42.7781C52.175 43.275 52.6219 43.8625 53.1938 44.3187C53.2969 44.4 53.3938 44.4969 53.4407 44.6281C52.8032 44.6281 52.1657 44.6281 51.5282 44.6281C51.1688 44.2562 50.7844 43.9094 50.4282 43.5344C50.0719 43.1594 49.6875 42.8094 49.3344 42.4344C48.9688 42.0469 48.5844 41.6812 48.2094 41.3031C47.9032 40.9937 47.6032 40.675 47.2875 40.3781C46.7688 39.8937 46.2688 39.3906 45.7907 38.8687C45.5657 38.625 45.3157 38.4031 45.0813 38.1687C44.4532 37.5437 43.8125 36.9281 43.1844 36.3C42.9594 36.075 42.7657 35.8219 42.5125 35.625C42.4438 35.5719 42.3469 35.5094 42.4125 35.3875V35.375ZM30.2657 21.3219C30.3563 21.5437 30.5563 21.675 30.7219 21.825C30.9125 22 31.0844 22.1906 31.2657 22.3719C32.1625 23.2719 33.0657 24.1719 33.9625 25.0719C34.3969 25.5062 34.85 25.925 35.2688 26.3781C35.7875 26.9375 36.3438 27.4594 36.8813 28C37.325 28.4437 37.7813 28.8719 38.2219 29.3125C38.5969 29.6875 38.9688 30.0719 39.3344 30.4562C39.375 30.4969 39.3969 30.5562 39.425 30.6062C39.0219 30.6594 38.6188 30.6219 38.2157 30.6281C38.0125 30.6281 37.8063 30.6594 37.6032 30.6062C37.525 30.5094 37.4594 30.4 37.3719 30.3125C36.8719 29.8062 36.3657 29.3062 35.8625 28.8C35.2844 28.2187 34.725 27.6187 34.1282 27.0594C33.4625 26.4375 32.8625 25.7469 32.1782 25.1437C31.9032 24.9031 31.6813 24.5969 31.4094 24.3531C30.9313 23.925 30.5344 23.4219 30.0563 22.9969C29.625 22.6156 29.2719 22.1594 28.8282 21.7875C28.6813 21.6656 28.5157 21.5156 28.4407 21.3156C29.05 21.3156 29.6563 21.3156 30.2657 21.3156V21.3219Z" fill="#3C99B9"/>
<path d="M54.2032 57.5719C54.0532 57.5469 53.9594 57.425 53.8657 57.3344C53.5907 57.0687 53.2938 56.8219 53.0625 56.5125C52.9844 56.4094 52.8625 56.3406 52.7688 56.2469C52.0563 55.5375 51.3313 54.8344 50.6344 54.1062C50.2469 53.7031 49.8532 53.3031 49.4563 52.9156C48.6063 52.0906 47.7751 51.2469 46.9407 50.4094C46.6657 50.1312 46.3844 49.8625 46.1063 49.5875C46.05 49.5312 45.975 49.4875 45.9719 49.3906C46.7282 49.3906 47.4844 49.3906 48.2407 49.3906C48.5657 49.7656 48.9282 50.1031 49.2875 50.4469C49.5625 50.7125 49.8126 51.0125 50.1001 51.2656C50.3719 51.5062 50.625 51.7687 50.8688 52.0312C51.1657 52.35 51.5063 52.625 51.7875 52.9563C51.95 53.15 52.1438 53.3125 52.3219 53.4906C52.9063 54.0781 53.4813 54.675 54.0688 55.2594C54.4001 55.5875 54.7407 55.9062 55.0657 56.2406C55.1282 56.3031 55.2032 56.3594 55.2157 56.4531C54.8782 56.825 54.5438 57.1969 54.2063 57.5687L54.2032 57.5719Z" fill="#5087C7"/>
<path d="M60.1188 44.6281C60.0531 44.4688 59.9156 44.3625 59.8 44.2469C59.2875 43.7344 58.7562 43.2406 58.2594 42.7156C57.8062 42.2406 57.3187 41.8 56.8875 41.3031C56.6937 41.0813 56.4531 40.8844 56.2375 40.675C55.6844 40.1344 55.1344 39.5906 54.5969 39.0344C54.0125 38.4313 53.4156 37.8344 52.8094 37.2531C52.3094 36.7688 51.8563 36.2406 51.3438 35.7688C51.2063 35.6406 51.0063 35.5469 50.9531 35.3344C51.125 35.275 51.3 35.3094 51.475 35.3094C51.8625 35.3094 52.2531 35.2906 52.6406 35.3188C53.0281 35.3594 53.3625 35.5031 53.6281 35.8C54.4781 36.7438 55.3312 37.6844 56.1844 38.6219C56.6844 39.175 57.1937 39.7188 57.6937 40.2719C58.5125 41.1719 59.325 42.0781 60.1406 42.9813C60.275 43.1281 60.425 43.2625 60.55 43.4188C60.9406 43.9156 60.7969 44.4094 60.2063 44.6344C60.175 44.6469 60.1469 44.65 60.1188 44.625V44.6281Z" fill="#2BA9AC"/>
<path d="M45.0405 21.3656C45.7062 21.3656 46.3749 21.3656 47.0405 21.3656C47.5062 21.8281 47.9749 22.2875 48.4218 22.7687C48.7343 23.1031 49.0905 23.3937 49.4062 23.7281C49.6343 23.9687 49.8437 24.2281 50.0937 24.45C50.6499 24.9468 51.1499 25.5031 51.6812 26.0281C52.2999 26.6406 52.9312 27.2406 53.5374 27.8656C53.8312 28.1687 54.1593 28.4343 54.4405 28.75C54.5249 28.8437 54.6249 28.9219 54.6499 29.0562C54.3374 29.3968 54.028 29.7375 53.7155 30.0781C53.5093 29.9531 53.3593 29.7593 53.1905 29.5937C53.003 29.4093 52.7968 29.2312 52.6312 29.0312C52.403 28.7562 52.103 28.5656 51.8749 28.3C51.553 27.9281 51.1968 27.5875 50.853 27.2375C50.3936 26.7687 49.903 26.3312 49.4593 25.8531C49.1062 25.4719 48.7249 25.1156 48.3655 24.7437C47.8968 24.2593 47.4312 23.7593 46.9093 23.325C46.6905 23.1437 46.5187 22.9094 46.3187 22.7062C45.9562 22.3375 45.5905 21.975 45.2249 21.6125C45.1499 21.5375 45.0812 21.4625 45.0405 21.3656Z" fill="#1CB7A0"/>
<path d="M35.5499 58.6625C35.1593 58.6656 34.7686 58.675 34.378 58.675C33.3874 58.675 32.3999 58.675 31.4093 58.675C31.328 58.675 31.2468 58.6656 31.1686 58.6625C31.2311 58.5563 31.3374 58.5938 31.4249 58.5906C31.7499 58.5844 32.0718 58.5938 32.4468 58.5813C32.2374 58.35 32.053 58.1625 31.8686 57.975C31.328 57.4281 30.7843 56.8813 30.2374 56.3438C29.578 55.6969 28.9718 54.9969 28.2624 54.4031C28.0249 54.2031 27.8468 53.9438 27.628 53.725C27.1093 53.2 26.5749 52.6875 26.053 52.1656C25.7843 51.8938 25.4905 51.6469 25.2405 51.3563C25.1936 51.3031 25.1218 51.2594 25.1499 51.1688C25.4593 50.8 25.7686 50.4281 26.1311 50.1063C26.6093 50.4625 26.953 50.9563 27.3905 51.3531C28.0061 51.9156 28.5718 52.5313 29.1624 53.1188C29.6499 53.6031 30.1249 54.1 30.6186 54.5813C31.0093 54.9625 31.4093 55.3344 31.7874 55.725C32.3155 56.2719 32.8686 56.8 33.3968 57.35C33.7811 57.75 34.1874 58.1281 34.578 58.5219C34.6374 58.5813 34.703 58.5906 34.778 58.5906C34.9936 58.5906 35.2061 58.5906 35.4218 58.5906C35.4749 58.6 35.5343 58.5938 35.553 58.6656L35.5499 58.6625Z" fill="#7B5FE8"/>
<path d="M25.1499 51.1625C25.3468 51.3437 25.4718 51.5937 25.7218 51.7312C25.8249 51.7875 25.8843 51.9218 25.9718 52.0093C26.4186 52.4437 26.8749 52.8687 27.3124 53.3125C27.6218 53.625 27.9405 53.9312 28.2093 54.2844C28.2968 54.4 28.428 54.4812 28.5374 54.5781C28.9968 54.9781 29.3968 55.4437 29.8343 55.8656C30.2999 56.3156 30.753 56.7844 31.2155 57.2375C31.6311 57.6437 32.0499 58.05 32.4405 58.4843C32.4718 58.5187 32.5374 58.55 32.5061 58.6094C32.478 58.6656 32.4124 58.6406 32.3655 58.6406C31.9655 58.6531 31.5655 58.6156 31.1686 58.6625C30.4843 58.6687 29.7999 58.6719 29.1155 58.6781C28.9968 58.6781 28.8811 58.6812 28.7624 58.6843C28.7468 58.675 28.7405 58.6625 28.7436 58.65C28.7436 58.6375 28.7499 58.6312 28.753 58.6312C28.8686 58.5625 28.9968 58.5906 29.1218 58.5906C29.453 58.5844 29.7874 58.5906 30.1343 58.5875C30.1249 58.4843 30.0624 58.4281 30.0061 58.3781C29.2436 57.7 28.5468 56.9531 27.8311 56.2281C27.0374 55.425 26.2218 54.6406 25.4436 53.8218C25.028 53.3843 24.5999 52.9562 24.1561 52.5437C24.1061 52.4969 24.0218 52.4656 24.0405 52.3718C24.4093 51.9687 24.7499 51.5406 25.1499 51.1656V51.1625Z" fill="#815AEC"/>
<path d="M34.3561 49.3531C34.0811 49.4281 33.7968 49.3688 33.5186 49.3844C33.3968 49.3907 33.2749 49.3844 33.1218 49.3844C33.3155 49.675 33.5593 49.8688 33.7749 50.0813C33.9843 50.2875 34.1686 50.5157 34.3811 50.7188C34.4874 50.8219 34.6124 50.9063 34.7124 51.0125C35.2218 51.5657 35.7905 52.0594 36.3061 52.6063C36.6624 52.9875 37.0343 53.35 37.4093 53.7094C37.8561 54.1407 38.253 54.6313 38.7218 55.0375C39.2155 55.4657 39.6061 55.9875 40.0999 56.4157C40.4061 56.6844 40.6718 57.0094 40.9718 57.2938C41.3436 57.65 41.6718 58.0532 42.0749 58.3813C42.1561 58.4469 42.2155 58.5313 42.2374 58.6375C41.8186 58.6907 41.3968 58.6282 40.978 58.6688C40.6843 58.6969 40.4905 58.5844 40.3124 58.375C39.9749 57.9813 39.5936 57.6313 39.2249 57.2688C38.7061 56.7625 38.1968 56.2469 37.6874 55.7282C37.3686 55.4 37.0311 55.0875 36.7061 54.7625C36.0593 54.1094 35.3874 53.4813 34.7718 52.8C34.5061 52.5032 34.1874 52.2563 33.9093 51.9688C33.2811 51.3219 32.6468 50.6813 31.9968 50.0563C31.8374 49.9031 31.6968 49.7282 31.5499 49.5625C31.5124 49.5188 31.4718 49.4625 31.5061 49.4032C31.5374 49.3469 31.5999 49.3688 31.6468 49.3688C31.9561 49.3594 32.2686 49.3813 32.578 49.3563C33.1718 49.3563 33.7655 49.3563 34.3561 49.3563V49.3531Z" fill="#6D6DDD"/>
<path d="M25.5062 22.7344C25.8406 23.0781 26.1719 23.4218 26.5094 23.7593C27.0656 24.3218 27.6281 24.8781 28.1875 25.4375C29.2062 26.4562 30.2219 27.475 31.2437 28.4906C31.5906 28.8375 31.975 29.1562 32.2937 29.5219C32.6156 29.8969 33.0344 30.1781 33.2937 30.6031C33.1969 30.6562 33.0937 30.6281 32.9906 30.6281C32.425 30.6312 31.8594 30.6281 31.2937 30.6281C31.1969 30.6437 31.1469 30.575 31.0937 30.5125C30.5031 29.8406 29.8344 29.2406 29.2031 28.6062C28.7437 28.1437 28.2875 27.6844 27.8281 27.2219C27.5312 26.925 27.2437 26.6156 26.9312 26.3343C26.5594 25.9968 26.2469 25.5968 25.8719 25.2625C25.4719 24.9031 25.1094 24.5062 24.7344 24.1219C24.6406 24.025 24.4844 23.9344 24.5719 23.75C24.8844 23.4094 25.1937 23.0656 25.5062 22.725V22.7344Z" fill="#488EC1"/>
<path d="M54.647 29.0562C54.247 28.5844 53.7657 28.1937 53.3438 27.7406C52.9501 27.3187 52.5032 26.95 52.1063 26.5281C51.7688 26.1687 51.4001 25.8406 51.072 25.4718C50.6845 25.0406 50.2376 24.6625 49.8251 24.2531C49.4876 23.9156 49.1845 23.5437 48.8282 23.225C48.3845 22.8281 48.0001 22.375 47.5657 21.9656C47.3782 21.7875 47.1563 21.6156 47.0376 21.3656C47.6751 21.3656 48.3126 21.3656 48.9532 21.3656C49.272 21.6437 49.5657 21.9469 49.8563 22.2469C50.1657 22.5656 50.4751 22.8843 50.797 23.1906C51.2688 23.6406 51.7126 24.1156 52.172 24.575C53.1595 25.5625 54.1563 26.5468 55.1407 27.5406C55.2938 27.6968 55.4532 27.8531 55.5813 28.0312C55.2688 28.3718 54.9595 28.7125 54.647 29.0562Z" fill="#18BA9E"/>
<path d="M55.2124 56.4594C54.7781 56.0312 54.3437 55.6 53.9124 55.1719C53.7124 54.975 53.5124 54.7781 53.3187 54.5781C52.7562 53.9937 52.1906 53.4156 51.6093 52.8531C51.2687 52.5219 50.9374 52.1781 50.5999 51.8437C50.1687 51.4156 49.7249 50.9937 49.3093 50.5469C49.0093 50.225 48.6812 49.9219 48.3593 49.6187C48.2937 49.5562 48.2281 49.4969 48.2406 49.3937C48.8937 49.3937 49.5468 49.3937 50.1968 49.3937C50.4656 49.6031 50.7031 49.8469 50.9343 50.0906C51.1781 50.3469 51.4468 50.5781 51.6812 50.8406C51.9656 51.1625 52.3187 51.4125 52.5812 51.7531C52.7031 51.9125 52.8812 52.0156 53.0187 52.1594C53.7281 52.9 54.4624 53.6187 55.1999 54.3312C55.5062 54.625 55.7937 54.9437 56.0968 55.2437C56.1374 55.2844 56.1843 55.3281 56.1562 55.3969C55.9312 55.7125 55.6531 55.9844 55.3906 56.2656C55.3312 56.3312 55.2687 56.3937 55.2093 56.4562L55.2124 56.4594Z" fill="#4C8BC5"/>
<path d="M55.5813 28.0312C55.397 27.9531 55.3032 27.775 55.1688 27.6406C54.6251 27.0968 54.0876 26.5468 53.5376 26.0125C52.9501 25.4437 52.3688 24.8687 51.8001 24.2875C51.3376 23.8156 50.8595 23.3531 50.4032 22.8781C49.9845 22.4437 49.5532 22.0218 49.1251 21.5968C49.0563 21.5281 48.9938 21.4562 48.9595 21.3656C49.672 21.3656 50.3813 21.3656 51.0938 21.3656C51.4657 21.6375 51.7282 22.025 52.0782 22.3187C52.422 22.6093 52.6907 22.975 53.0345 23.2687C53.2814 23.4781 53.4563 23.7593 53.7063 23.9687C54.0876 24.2875 54.3907 24.6844 54.7595 25.0156C55.2376 25.4437 55.6564 25.9312 56.1345 26.3625C56.3064 26.5156 56.5032 26.675 56.5657 26.925C56.4657 27.1531 56.247 27.2781 56.1001 27.4719C55.947 27.675 55.7563 27.8468 55.5845 28.0343L55.5813 28.0312Z" fill="#14BE9B"/>
<path d="M24.5718 23.7594C24.5561 23.9063 24.6655 24.0032 24.7499 24.075C24.9936 24.2782 25.2124 24.5156 25.4186 24.7438C25.7249 25.0875 26.0905 25.3688 26.3968 25.7125C26.6186 25.9594 26.8436 26.2157 27.1124 26.4313C27.4155 26.6782 27.6624 26.9969 27.9405 27.2782C28.203 27.5438 28.4843 27.7906 28.7436 28.0563C28.9749 28.2938 29.1936 28.5406 29.4436 28.7625C29.8249 29.1063 30.1749 29.4844 30.5405 29.8438C30.7811 30.0813 31.0124 30.325 31.203 30.6094C31.1374 30.6625 31.0593 30.6344 30.9905 30.6344C30.5249 30.6344 30.0561 30.6156 29.5905 30.6438C29.3218 30.6594 29.1436 30.5594 28.9718 30.3813C28.1436 29.525 27.3124 28.6719 26.4593 27.8469C25.7843 27.1938 25.153 26.5 24.4655 25.8594C24.1968 25.6094 23.9311 25.35 23.678 25.0813C23.6124 25.0125 23.5311 24.9438 23.5968 24.8313C23.9218 24.475 24.2499 24.1188 24.5749 23.7625L24.5718 23.7594Z" fill="#4C8AC5"/>
<path d="M23.5938 24.8312C23.6125 25.0312 23.7875 25.125 23.9063 25.2406C24.4656 25.7844 25.0375 26.3156 25.5594 26.9C25.7938 27.1625 26.0719 27.3812 26.3219 27.6312C26.75 28.0562 27.1719 28.4906 27.5969 28.9187C27.725 29.0469 27.8688 29.1625 27.9906 29.2969C28.3781 29.7219 28.8063 30.1031 29.2031 30.5156C29.2719 30.5875 29.3313 30.6187 29.4281 30.6187C30.0188 30.6125 30.6125 30.6156 31.2031 30.6125C31.9 30.6125 32.5969 30.6125 33.2938 30.6125C34.0219 30.6125 34.7469 30.6125 35.475 30.6125C36.1875 30.6125 36.9 30.6125 37.6094 30.6125C38.2188 30.6125 38.825 30.6125 39.4344 30.6125C40.1031 30.6125 40.7688 30.6125 41.4375 30.6125C41.7469 30.6375 42.0594 30.575 42.3657 30.6437C42.2782 30.6469 42.1875 30.6531 42.1 30.6531C37.7375 30.6531 33.375 30.65 29.0125 30.6469C28.9313 30.6469 28.85 30.65 28.7688 30.6531C28.2594 30.6094 27.75 30.6469 27.2438 30.6344C27.075 30.6344 27.0063 30.4937 26.9156 30.3969C26.3688 29.8344 25.8031 29.2906 25.2563 28.7312C24.9813 28.45 24.7031 28.175 24.425 27.9C24.0625 27.5437 23.75 27.1375 23.3375 26.8281C23.0531 26.6125 22.8625 26.3 22.5938 26.0687C22.5719 26.05 22.5656 26.0187 22.5781 25.9875C22.7344 25.7 23.0125 25.5219 23.2031 25.2594C23.3188 25.1031 23.4688 24.9719 23.6 24.8312H23.5938Z" fill="#5087C7"/>
<path d="M56.5625 26.925C56.2156 26.4844 55.7781 26.1344 55.4 25.7281C54.9312 25.2281 54.3937 24.7969 53.9594 24.2656C53.85 24.1312 53.6937 24.0343 53.5719 23.9062C53.2062 23.5281 52.825 23.1625 52.4687 22.7719C52.1781 22.4531 51.8344 22.1812 51.5438 21.8625C51.3938 21.7 51.1969 21.5719 51.0938 21.3656C51.8344 21.3656 52.5781 21.3656 53.3187 21.3656C53.6125 21.6969 53.95 21.9875 54.2812 22.2781C54.3781 22.3625 54.4469 22.4687 54.5281 22.5594C54.9094 22.9812 55.3406 23.3562 55.7344 23.7656C56.2188 24.2719 56.7375 24.7437 57.2 25.275C57.3437 25.4406 57.5781 25.5187 57.6344 25.7625C57.2875 26.1594 56.9562 26.5687 56.5656 26.9219L56.5625 26.925Z" fill="#10C297"/>
<path d="M35.5499 58.6625C35.5093 58.6532 35.4655 58.6469 35.4249 58.6375C35.0249 58.2875 34.6436 57.9188 34.2905 57.5219C34.1436 57.3563 33.9718 57.2157 33.8124 57.0594C33.1405 56.3907 32.4936 55.7 31.8061 55.05C31.0999 54.3844 30.4499 53.6625 29.7499 52.9907C29.0843 52.3532 28.4405 51.6875 27.7843 51.0407C27.4155 50.6782 27.0968 50.2657 26.6843 49.9438C26.5968 49.875 26.4905 49.7938 26.528 49.65C26.7593 49.4532 27.0311 49.3656 27.3343 49.3531C27.6686 49.6813 28.0155 49.9969 28.3343 50.3438C28.4686 50.4907 28.6374 50.5907 28.7749 50.7344C29.0436 51.025 29.278 51.35 29.5968 51.6C29.8436 51.7938 30.053 52.0344 30.2718 52.2625C30.528 52.525 30.778 52.7907 31.0468 53.0407C31.4843 53.4469 31.9093 53.8688 32.328 54.2969C32.7124 54.6907 33.1093 55.075 33.4749 55.4907C33.6655 55.7063 33.9061 55.8875 34.1124 56.0969C34.6249 56.6188 35.1311 57.1438 35.6655 57.6438C35.9655 57.925 36.2249 58.2469 36.528 58.525C36.6186 58.6094 36.6968 58.6407 36.8155 58.6469C37.153 58.6563 37.4936 58.6094 37.8311 58.6719C37.0749 58.6844 36.3155 58.6969 35.5593 58.6657L35.5499 58.6625Z" fill="#7862E6"/>
<path d="M19.3655 35.6812C19.6718 35.9531 19.9655 36.2406 20.2468 36.5344C20.6468 36.9531 21.0936 37.325 21.4811 37.7562C21.7374 38.0406 22.0218 38.2969 22.2905 38.5656C22.6343 38.9062 22.9436 39.2844 23.3249 39.5937C23.5311 39.7625 23.7093 39.9719 23.8905 40.175C24.1436 40.4594 24.4374 40.7062 24.7061 40.975C24.9405 41.2094 25.1624 41.4531 25.3968 41.6875C25.8718 42.1656 26.3499 42.6469 26.8311 43.1187C27.1718 43.4531 27.5311 43.7719 27.8624 44.1156C28.0249 44.2844 28.1968 44.4469 28.3093 44.6594C28.0499 44.6594 27.7905 44.65 27.5311 44.6687C26.953 44.7094 26.5218 44.4469 26.1874 44.0156C26.0155 43.7937 25.8124 43.6062 25.6311 43.3906C25.2686 42.9562 24.8624 42.5594 24.4811 42.1406C23.8905 41.4969 23.303 40.8469 22.7155 40.2C22.1343 39.5594 21.5499 38.9156 20.9686 38.275C20.528 37.7906 20.0811 37.3125 19.653 36.8187C19.4468 36.5812 19.1843 36.3625 19.2436 35.9844C19.2624 35.8687 19.2686 35.7562 19.3686 35.675L19.3655 35.6812Z" fill="#6D6DDD"/>
<path d="M56.1625 55.3969C55.9875 55.125 55.6875 54.9813 55.4906 54.7281C55.1563 54.2969 54.75 53.9313 54.3469 53.575C53.7469 53.0469 53.25 52.4219 52.6594 51.8875C52.3594 51.6156 52.0438 51.3438 51.7906 51.0125C51.6188 50.7906 51.375 50.6219 51.175 50.4219C50.9156 50.1625 50.6563 49.9 50.4156 49.6281C50.3438 49.55 50.2062 49.5281 50.2031 49.3906C50.8406 49.3906 51.4781 49.3906 52.1156 49.3906C52.3781 49.65 52.6469 49.9063 52.9125 50.1625C53.4406 50.6688 53.9438 51.2 54.4625 51.7156C54.7531 52.0063 55.0719 52.2656 55.3375 52.5875C55.5719 52.8719 55.8438 53.125 56.1219 53.3687C56.4219 53.6312 56.6813 53.9375 56.9781 54.2031C57.0375 54.2562 57.0906 54.325 57.0563 54.4187C56.7844 54.7656 56.4906 55.0969 56.1656 55.3969H56.1625Z" fill="#488EC2"/>
<path d="M39.8751 58.6375C39.6688 58.6375 39.4563 58.6156 39.2532 58.6437C38.9251 58.6906 38.697 58.5656 38.472 58.3344C37.9845 57.8344 37.4751 57.35 36.9876 56.8531C36.622 56.4781 36.2595 56.0875 35.8845 55.7156C35.4376 55.275 34.9813 54.8437 34.547 54.3906C34.1938 54.025 33.8188 53.6812 33.4626 53.3219C33.0501 52.9031 32.6313 52.4875 32.2157 52.0719C31.7813 51.6375 31.3501 51.2062 30.9188 50.7719C30.4813 50.3312 30.0438 49.8844 29.6095 49.4406C29.5845 49.4156 29.572 49.3781 29.5532 49.3469C29.9376 49.3469 30.322 49.3469 30.7095 49.3469C31.0032 49.5969 31.2345 49.9062 31.5157 50.1687C31.7688 50.4062 31.9907 50.675 32.2626 50.8969C32.4126 51.0187 32.5313 51.1719 32.6657 51.3094C33.0313 51.675 33.3907 52.0469 33.7626 52.4062C33.9938 52.6281 34.2157 52.875 34.447 53.0969C34.7532 53.3875 35.0282 53.7062 35.3313 53.9969C35.6438 54.2969 35.9845 54.5719 36.2595 54.9156C36.4063 55.1 36.5813 55.2625 36.7626 55.4187C37.0376 55.6531 37.2751 55.9281 37.5345 56.1812C37.9907 56.625 38.4001 57.1125 38.8876 57.525C39.1313 57.7312 39.3251 57.9844 39.5532 58.2094C39.6313 58.2875 39.7063 58.3687 39.7907 58.4406C39.8501 58.4906 39.9313 58.5375 39.872 58.6406L39.8751 58.6375Z" fill="#706ADF"/>
<path d="M24.0374 52.3688C24.2562 52.575 24.4812 52.775 24.6905 52.9907C25.3187 53.6407 25.9593 54.2844 26.6124 54.9125C26.9718 55.2563 27.3374 55.6032 27.6718 55.9688C28.0718 56.4063 28.5343 56.7844 28.9155 57.2438C29.2343 57.625 29.6343 57.9406 29.9968 58.2875C30.0936 58.3813 30.2499 58.4844 30.2218 58.6063C30.1999 58.6938 30.0093 58.6375 29.8968 58.6406C29.5124 58.6469 29.128 58.6469 28.7405 58.65C28.678 58.6781 28.6093 58.6625 28.5436 58.6625C28.1718 58.2406 27.7405 57.8813 27.353 57.4781C26.4468 56.5344 25.5062 55.6281 24.5812 54.7063C24.1937 54.3219 23.8155 53.9281 23.4437 53.525C23.3687 53.4438 23.2718 53.3844 23.1968 53.3032C23.4749 52.9907 23.7562 52.6813 24.0343 52.3688H24.0374Z" fill="#8557EF"/>
<path d="M57.05 54.4187C56.9094 54.1437 56.6438 53.9812 56.4438 53.7594C56.0188 53.2969 55.4969 52.9281 55.1282 52.4094C55.0282 52.2687 54.8688 52.1781 54.7438 52.0594C54.2594 51.6031 53.8094 51.1125 53.3344 50.65C52.9719 50.2969 52.6219 49.9312 52.2469 49.5875C52.1876 49.5344 52.1157 49.4875 52.1125 49.3937C52.8407 49.3937 53.5657 49.3937 54.2938 49.3937C54.6313 49.7344 54.9907 50.0531 55.3094 50.4125C55.4657 50.5906 55.6563 50.7344 55.8157 50.9094C56.2532 51.3812 56.7313 51.8094 57.1688 52.2844C57.4157 52.5531 57.7032 52.7937 57.9657 53.0562C58.0282 53.1187 58.1063 53.1687 58.1251 53.2656C57.7719 53.6562 57.4438 54.0656 57.0563 54.425L57.05 54.4187Z" fill="#4591BF"/>
<path d="M22.5719 25.9875C22.9937 26.375 23.3844 26.7938 23.8031 27.1813C24.0812 27.4375 24.3344 27.7469 24.6094 28.0188C24.9062 28.3125 25.2 28.6125 25.5031 28.9031C26.0375 29.4125 26.5469 29.9437 27.0656 30.4656C27.1062 30.5062 27.125 30.5656 27.1531 30.6188C26.5094 30.6531 25.8656 30.625 25.2219 30.6344C25.125 30.6344 25.0281 30.6344 24.9344 30.6344C24.8531 30.6437 24.7969 30.6031 24.7437 30.5437C24.3687 30.1344 23.9562 29.7625 23.5625 29.3719C23.1687 28.9812 22.7562 28.6125 22.3937 28.1906C22.1531 27.9125 21.8594 27.6844 21.6 27.4219C21.525 27.3469 21.4219 27.2719 21.5031 27.1375C21.8531 26.7469 22.1781 26.3312 22.5719 25.9844V25.9875Z" fill="#5483CB"/>
<path d="M21.1905 55.5219C21.553 55.0719 21.9561 54.6594 22.3499 54.2344C22.5124 54.2531 22.6155 54.3687 22.7093 54.4781C23.1624 55.0156 23.7093 55.4594 24.1811 55.975C24.7155 56.5562 25.328 57.0625 25.8499 57.6625C26.0874 57.9344 26.3811 58.1531 26.6155 58.4281C26.6811 58.5062 26.8061 58.6062 26.5905 58.6625C25.8311 58.6625 25.0718 58.6625 24.3124 58.6625C24.2311 58.6719 24.178 58.6281 24.1218 58.5719C23.5061 57.95 22.8905 57.3219 22.2718 56.7031C21.9374 56.3687 21.6061 56.0312 21.2686 55.7031C21.2186 55.6562 21.1374 55.6156 21.1936 55.5219H21.1905Z" fill="#8C50F5"/>
<path d="M26.6625 58.6469C26.6688 58.4344 26.4719 58.3469 26.3594 58.2438C25.8 57.7313 25.3157 57.1438 24.7469 56.6375C24.3563 56.2906 24.0157 55.8781 23.6344 55.5125C23.3657 55.2563 23.0813 55.0094 22.8375 54.7313C22.6844 54.5531 22.5282 54.3813 22.3469 54.2344C22.6313 53.925 22.9157 53.6125 23.2 53.3031C23.325 53.2875 23.3844 53.3844 23.4532 53.4563C24.025 54.0406 24.5875 54.6281 25.1625 55.2063C25.5375 55.5844 25.9438 55.9344 26.3094 56.3188C26.7282 56.7625 27.1469 57.2094 27.5907 57.6281C27.8469 57.8719 28.0625 58.1531 28.3532 58.3594C28.4438 58.425 28.55 58.5031 28.5282 58.6469C27.9063 58.6719 27.2813 58.6719 26.6594 58.6469H26.6625Z" fill="#8854F1"/>
<path d="M57.6312 25.7656C57.3906 25.5094 57.1312 25.2688 56.8906 25.0156C56.2594 24.3531 55.6031 23.7125 54.9531 23.0688C54.4375 22.5563 53.9375 22.025 53.3937 21.5406C53.3375 21.4906 53.3094 21.4438 53.3125 21.3719C53.9812 21.3719 54.6469 21.3719 55.3156 21.3719C55.8906 22.0063 56.5 22.6094 57.1187 23.1969C57.5844 23.6375 57.9844 24.1469 58.4906 24.5438C58.5406 24.5844 58.5875 24.6344 58.6094 24.7C58.2844 25.0563 57.9562 25.4125 57.6312 25.7688V25.7656Z" fill="#0CC594"/>
<path d="M26.5281 49.65C26.5875 49.8 26.6969 49.9125 26.8281 50C27.0219 50.1281 27.1594 50.3125 27.3125 50.4781C27.575 50.7656 27.8625 51.0281 28.1406 51.3031C28.45 51.6125 28.7531 51.9344 29.0656 52.2438C29.4844 52.6563 29.9094 53.0594 30.325 53.4719C30.575 53.7219 30.8062 53.9938 31.0594 54.2438C31.3406 54.525 31.6531 54.7813 31.9219 55.0719C32.3 55.4844 32.6906 55.8875 33.0937 56.275C33.4594 56.625 33.8219 56.9813 34.175 57.3406C34.4625 57.6344 34.7906 57.8906 35.0375 58.225C35.15 58.3781 35.3656 58.4344 35.4281 58.6375C34.625 58.6594 34.6156 58.6688 34.0687 58.0969C33.6187 57.6281 33.1562 57.175 32.7 56.7156C32.3219 56.3375 31.9437 55.9531 31.5594 55.5781C31.2937 55.3188 31.0312 55.05 30.7687 54.7906C30.4 54.4219 30.0344 54.0469 29.6562 53.6875C29.3344 53.3813 29.0375 53.0438 28.7281 52.7219C28.6312 52.6219 28.5062 52.55 28.4125 52.4438C27.9187 51.8875 27.3469 51.4125 26.8437 50.8688C26.6469 50.6594 26.4594 50.4406 26.2312 50.2656C26.1781 50.225 26.1281 50.1782 26.1312 50.1C26.2625 49.95 26.3594 49.7656 26.5312 49.65H26.5281Z" fill="#7962E6"/>
<path d="M58.1218 53.2594C58.0281 53.175 57.9375 53.0906 57.8437 53.0062C57.3093 52.5312 56.8249 52.0062 56.3187 51.5031C55.7843 50.9687 55.2374 50.4437 54.7218 49.8875C54.5718 49.7281 54.3843 49.6031 54.2937 49.3906C55.0187 49.3906 55.7468 49.3906 56.4718 49.3906C56.9656 49.8687 57.425 50.3781 57.9125 50.8594C58.3312 51.2719 58.7468 51.6906 59.1781 52.0969C58.8249 52.4844 58.475 52.8687 58.1218 53.2562V53.2594Z" fill="#4096BB"/>
<path d="M39.8751 58.6375C39.7845 58.4281 39.5751 58.3281 39.4345 58.1594C38.972 57.6062 38.3938 57.1656 37.9063 56.6281C37.6782 56.3781 37.4157 56.1406 37.1813 55.8937C36.847 55.5437 36.4532 55.2531 36.1501 54.8625C35.9907 54.6562 35.7626 54.5 35.5813 54.3156C35.3188 54.05 35.0376 53.8031 34.797 53.5187C34.5907 53.275 34.347 53.0625 34.1251 52.8281C33.8095 52.4906 33.4407 52.2062 33.1345 51.8562C32.9563 51.6531 32.7501 51.475 32.5626 51.275C32.2063 50.8969 31.8095 50.5562 31.4501 50.1781C31.2313 49.95 31.0251 49.7125 30.797 49.4937C30.7532 49.4531 30.7095 49.4125 30.7095 49.3469C31.3313 49.3469 31.9532 49.3469 32.5751 49.35C32.3063 49.425 32.0313 49.3625 31.7595 49.3844C31.6845 49.3906 31.572 49.3375 31.5376 49.425C31.5063 49.5031 31.6095 49.5656 31.6626 49.6187C31.9563 49.9187 32.2345 50.2344 32.5563 50.5094C32.8501 50.7625 33.0845 51.0844 33.372 51.3469C33.7313 51.675 34.0688 52.0281 34.4126 52.3687C35.1501 53.1031 35.8688 53.8594 36.6126 54.5875C36.9751 54.9437 37.347 55.2969 37.7032 55.6594C38.2376 56.1969 38.7657 56.7437 39.3095 57.2719C39.747 57.6969 40.1845 58.1219 40.5845 58.5812C40.647 58.6531 40.7189 58.6344 40.7876 58.6344C41.2689 58.6344 41.7501 58.6344 42.2345 58.6344C42.4095 58.6562 42.5907 58.6 42.7657 58.6687C42.022 58.6687 41.2813 58.6656 40.5376 58.6625C40.3188 58.6 40.097 58.6531 39.8782 58.6344L39.8751 58.6375Z" fill="#6F6ADF"/>
<path d="M21.5032 27.1406C21.5157 27.375 21.7157 27.475 21.8594 27.5969C22.1969 27.8844 22.475 28.225 22.7907 28.5281C23.3938 29.1031 23.9782 29.6937 24.575 30.275C24.6813 30.3781 24.7844 30.4813 24.8407 30.6219C24.2188 30.6563 23.5938 30.6281 22.9719 30.6375C22.8969 30.6469 22.8532 30.6031 22.8094 30.5469C22.6094 30.3 22.3938 30.0656 22.1407 29.8688C21.9907 29.7531 21.8875 29.6 21.7625 29.4656C21.4 29.075 20.9563 28.7656 20.6344 28.3375C20.6063 28.3 20.5469 28.275 20.5719 28.2094C20.6032 28.025 20.7813 27.9531 20.8813 27.8219C21.0657 27.5781 21.2969 27.3688 21.5094 27.1438L21.5032 27.1406Z" fill="#597FCE"/>
<path d="M58.6094 24.6968C58.4156 24.575 58.25 24.4187 58.0969 24.2531C57.625 23.7375 57.1063 23.2687 56.6125 22.7719C56.2375 22.3937 55.8625 22.0187 55.4844 21.6437C55.4063 21.5656 55.3281 21.4875 55.3125 21.3656C55.9344 21.3656 56.5594 21.3656 57.1812 21.3656C57.4406 21.6094 57.7 21.85 57.9437 22.1093C58.1562 22.3343 58.4031 22.5281 58.6094 22.7594C58.9 23.0812 59.2438 23.3562 59.4938 23.7156C59.1969 24.0406 58.9031 24.3687 58.6062 24.6937L58.6094 24.6968Z" fill="#08C992"/>
<path d="M21.1905 55.5219C21.203 55.6344 21.3124 55.6625 21.378 55.7312C21.9812 56.3625 22.6218 56.9594 23.2155 57.6C23.4749 57.8781 23.7562 58.1406 24.0405 58.3969C24.1187 58.4656 24.1843 58.5469 24.2187 58.6469C23.5374 58.6812 22.8562 58.6531 22.178 58.6625C22.0937 58.675 22.0437 58.625 21.9937 58.5656C21.9124 58.4687 21.8187 58.3875 21.7343 58.2969C21.2593 57.775 20.7249 57.3094 20.2343 56.8C20.1999 56.7625 20.1593 56.7281 20.1343 56.6812C20.4749 56.2812 20.8155 55.8844 21.1905 55.5187V55.5219Z" fill="#924BF9"/>
<path d="M59.1781 52.1C58.9406 52.025 58.8031 51.8187 58.6406 51.6594C58.1437 51.1687 57.6344 50.6906 57.1719 50.1656C56.9687 49.9375 56.7125 49.7594 56.525 49.5125C56.4969 49.475 56.4719 49.4406 56.4688 49.3937C56.9875 49.3875 57.5062 49.3844 58.025 49.3781C58.1969 49.35 58.3687 49.3719 58.5437 49.3656C58.5812 49.3656 58.6156 49.3781 58.6438 49.4031C59.1375 49.8969 59.6406 50.3844 60.1156 50.8937C60.1406 50.9219 60.1594 50.9531 60.1656 50.9906C59.8656 51.3875 59.5063 51.7312 59.175 52.1H59.1781Z" fill="#3C99B9"/>
<path d="M20.5657 28.2062C20.9095 28.6187 21.3314 28.9531 21.697 29.3437C22.0157 29.6844 22.3626 30 22.7001 30.325C22.7876 30.4094 22.8689 30.4906 22.8782 30.6187C22.3126 30.6531 21.747 30.625 21.1814 30.6344C21.1157 30.6406 21.0689 30.6094 21.0282 30.5625C20.6657 30.1312 20.2314 29.7687 19.8407 29.3656C19.7564 29.2781 19.6782 29.1844 19.7626 29.0531C19.9907 28.7906 20.222 28.5281 20.4501 28.2656C20.4814 28.2312 20.5189 28.2094 20.5626 28.2094L20.5657 28.2062Z" fill="#5C7CD0"/>
<path d="M59.4968 23.7187C59.2218 23.475 58.9562 23.2187 58.7187 22.9343C58.5937 22.7843 58.4374 22.6562 58.2968 22.5187C57.9405 22.1687 57.5812 21.8187 57.2249 21.4656C57.1999 21.4406 57.1968 21.4 57.1812 21.3687C57.4624 21.3625 57.7468 21.3562 58.028 21.35C58.3155 21.325 58.5999 21.3468 58.8874 21.3375C58.953 21.3312 58.9968 21.3687 59.0343 21.4187C59.3249 21.8312 59.7562 22.1093 60.0843 22.4843C60.1718 22.5843 60.2687 22.6719 60.3405 22.7844L59.4937 23.7187H59.4968Z" fill="#05CC8F"/>
<path d="M20.1312 56.6844C20.2156 56.6844 20.2562 56.7563 20.3093 56.8063C20.6531 57.1313 20.9781 57.4719 21.3281 57.7938C21.5749 58.0219 21.7968 58.2844 22.0343 58.5281C22.0687 58.5625 22.0812 58.6031 22.0812 58.6469C21.3249 58.6719 20.5718 58.6688 19.8156 58.6469C19.1687 58.5406 19.0906 57.75 19.4781 57.3813C19.7093 57.1625 19.9187 56.9156 20.1343 56.6813L20.1312 56.6844Z" fill="#9548FC"/>
<path d="M60.1687 50.9906C59.9687 50.8313 59.7938 50.6438 59.625 50.45C59.4875 50.2938 59.3281 50.1531 59.1781 50.0063C58.975 49.8125 58.7531 49.6344 58.6094 49.3875C59.1438 49.35 59.675 49.3625 60.2094 49.3813C60.7625 49.5406 60.8969 50.1344 60.6594 50.4594C60.5187 50.6531 60.3688 50.85 60.1719 50.9938L60.1687 50.9906Z" fill="#379EB5"/>
<path d="M19.7656 29.05C19.7469 29.1719 19.8125 29.2562 19.8937 29.3406C20.25 29.7 20.6406 30.0312 20.9719 30.4156C21.025 30.475 21.1031 30.5187 21.1031 30.6125C20.675 30.65 20.2437 30.6375 19.8156 30.6187C19.1625 30.5062 19.0844 29.7062 19.475 29.3687C19.5844 29.275 19.6375 29.125 19.7687 29.05H19.7656Z" fill="#6079D3"/>
<path d="M60.3407 22.7844C60.1282 22.6688 59.972 22.4813 59.822 22.3063C59.622 22.075 59.3657 21.9125 59.172 21.6844C59.0876 21.5844 58.9907 21.4938 58.9595 21.3594C59.3751 21.3219 59.7876 21.3375 60.2032 21.35C60.6595 21.5469 60.8501 21.8625 60.7313 22.2656C60.6688 22.4781 60.5032 22.6344 60.3407 22.7813V22.7844Z" fill="#01CF8C"/>
<path d="M36.9812 35.3406C36.7344 35.4125 36.4781 35.3531 36.2281 35.375C36.1563 35.4406 36.0656 35.4437 35.9781 35.4437C35.3812 35.4437 34.7812 35.4531 34.1844 35.4375C33.4438 35.45 32.7 35.4437 31.9594 35.4375C31.5 35.4469 31.0406 35.4406 30.5813 35.4375C30.4875 35.4375 30.3875 35.4437 30.3125 35.3656C30.3125 35.3562 30.3125 35.35 30.3125 35.3406C30.4 35.3375 30.4906 35.3312 30.5781 35.3312C32.6312 35.3312 34.6844 35.3312 36.7375 35.3312C36.8187 35.3312 36.9 35.3344 36.9812 35.3375V35.3406Z" fill="#597FCE"/>
<path d="M30.3124 35.3719C30.8624 35.3719 31.4093 35.3719 31.9593 35.375C32.0374 35.4188 32.1124 35.4625 32.1718 35.5344C32.5812 36.0438 33.1062 36.4406 33.5499 36.9156C33.9062 37.3 34.3155 37.6344 34.6499 38.0438C34.7343 38.15 34.8405 38.2313 34.9499 38.3063C35.253 38.5157 35.4562 38.8219 35.7124 39.0782C36.1593 39.5219 36.6124 39.9594 37.0499 40.4094C37.578 40.9594 38.1155 41.5 38.6593 42.0344C39.4062 42.7625 40.1124 43.5313 40.878 44.2407C40.9843 44.3375 41.1343 44.4313 41.0812 44.6219C40.3249 44.6219 39.5687 44.6219 38.8124 44.6219C38.2999 44.1188 37.7968 43.6063 37.2905 43.0969C36.9624 42.7688 36.6562 42.4156 36.3062 42.1094C36.1843 42 36.0905 41.8657 35.9749 41.75C35.3999 41.175 34.7968 40.6281 34.228 40.0469C33.5968 39.4 32.9405 38.7844 32.3155 38.1313C31.8812 37.6781 31.4405 37.2313 30.9937 36.7938C30.5843 36.3906 30.1937 35.9656 29.7655 35.5781C29.7093 35.5281 29.628 35.475 29.6905 35.375C29.8968 35.375 30.1062 35.3719 30.3124 35.3688V35.3719Z" fill="#5483CB"/>
<path d="M29.6874 35.3781C29.6968 35.4062 29.6968 35.4469 29.7155 35.4594C29.9968 35.6687 30.1905 35.9625 30.4468 36.1969C30.6843 36.4156 30.8936 36.6594 31.1343 36.8719C31.4686 37.1687 31.7499 37.5156 32.0874 37.8125C32.4186 38.1031 32.6905 38.4562 33.0124 38.7594C33.4936 39.2125 33.9405 39.7031 34.4124 40.1656C34.9593 40.7 35.5155 41.2312 36.0593 41.7719C36.4061 42.1187 36.7343 42.4844 37.0811 42.8312C37.6155 43.3719 38.1561 43.9062 38.6936 44.4469C38.7436 44.4969 38.8093 44.5406 38.8093 44.6281C38.1561 44.6281 37.503 44.6281 36.853 44.6281C36.6186 44.4687 36.4499 44.2406 36.253 44.0406C35.6749 43.4594 35.0905 42.8812 34.5186 42.2937C33.7093 41.4594 32.8561 40.6719 32.053 39.8312C31.5436 39.2969 31.0093 38.7844 30.4874 38.2625C29.7468 37.525 29.028 36.7687 28.2593 36.0594C28.0968 35.9094 27.953 35.7375 27.7999 35.575C27.7499 35.5219 27.6999 35.4625 27.7343 35.3781C28.3874 35.3781 29.0374 35.3781 29.6905 35.3781H29.6874Z" fill="#597FCE"/>
<path d="M27.7313 35.3781C27.8532 35.6406 28.0813 35.8219 28.2782 36.0094C28.9688 36.6688 29.6219 37.3656 30.3094 38.025C30.7563 38.4563 31.1563 38.9375 31.6469 39.3219C31.7438 39.3969 31.8063 39.5156 31.8938 39.6031C32.5 40.2063 33.0938 40.8188 33.725 41.3969C33.9344 41.5906 34.1094 41.8188 34.3125 42.0219C35.0313 42.7469 35.7532 43.4656 36.4782 44.1875C36.6157 44.325 36.7375 44.4688 36.85 44.625C36.2938 44.625 35.7375 44.6219 35.1813 44.6281C35.0282 44.6281 34.9438 44.5656 34.8469 44.4563C34.6282 44.2094 34.4094 43.9625 34.1719 43.7281C33.7938 43.3594 33.4032 43 33.0469 42.6063C32.8844 42.425 32.7219 42.225 32.5157 42.0813C32.3844 41.9906 32.3188 41.8438 32.2032 41.7375C31.7782 41.3375 31.325 40.9656 30.9313 40.5344C30.4907 40.0531 30.0157 39.6125 29.5657 39.1406C29.1875 38.7469 28.7813 38.3844 28.3969 37.9969C27.95 37.5438 27.5063 37.0906 27.0625 36.6375C26.7094 36.2781 26.35 35.925 25.9969 35.5688C25.9407 35.5125 25.8657 35.4688 25.8625 35.3719C26.4844 35.3719 27.1094 35.3719 27.7313 35.3719V35.3781Z" fill="#5C7CD1"/>
<path d="M41.0782 44.625C41.0501 44.5063 40.9751 44.4125 40.8907 44.3313C40.5314 43.9719 40.172 43.6125 39.7938 43.2719C39.5751 43.075 39.3751 42.8531 39.1907 42.625C38.9814 42.3625 38.697 42.1906 38.4813 41.9344C38.2751 41.6875 38.0282 41.4719 37.8001 41.2406C37.272 40.7125 36.747 40.1844 36.2189 39.6594C35.8907 39.3344 35.5563 39.0125 35.2563 38.6594C35.0438 38.4063 34.7282 38.2563 34.522 37.9906C34.2595 37.65 33.9251 37.3813 33.6251 37.0781C33.3376 36.7875 33.0626 36.4781 32.7438 36.2156C32.447 35.9719 32.2063 35.6687 31.9595 35.375C32.7001 35.375 33.4407 35.375 34.1845 35.375C34.5157 35.7031 34.8376 36.0375 35.1751 36.3594C35.4907 36.6594 35.7845 36.9813 36.1001 37.2844C36.4438 37.6125 36.7657 37.9563 37.097 38.2969C37.2782 38.4813 37.4626 38.6656 37.6501 38.8406C38.1782 39.3375 38.6782 39.8625 39.1845 40.3781C39.8626 41.0688 40.5688 41.7344 41.2438 42.4281C41.9032 43.1063 42.572 43.775 43.2439 44.4375C43.2939 44.4875 43.3657 44.5344 43.3064 44.625C42.5657 44.625 41.822 44.625 41.0814 44.625H41.0782Z" fill="#5087C7"/>
<path d="M47.2626 44.6218C47.1907 44.4 47.0001 44.2656 46.847 44.1219C46.4032 43.7 45.9845 43.25 45.547 42.8218C45.0501 42.3406 44.5657 41.8531 44.0626 41.3781C43.772 41.1031 43.5095 40.7937 43.222 40.5125C42.9095 40.2093 42.6064 39.8968 42.297 39.5906C41.7001 38.9937 41.1032 38.3968 40.5095 37.8031C39.8532 37.1468 39.197 36.4937 38.5439 35.8343C38.447 35.7343 38.3095 35.6781 38.2439 35.5437C38.222 35.5 38.1501 35.4718 38.1689 35.4187C38.1939 35.3468 38.272 35.3781 38.3251 35.3781C38.9689 35.3781 39.6126 35.3781 40.2564 35.3781C40.2626 35.3781 40.272 35.3781 40.2782 35.3781C40.6376 35.6968 40.9939 36.0187 41.3032 36.3906C41.5282 36.6593 41.8095 36.8687 42.0595 37.1093C42.6157 37.65 43.1532 38.2125 43.697 38.7656C44.1157 39.1937 44.5439 39.6125 44.9657 40.0375C45.522 40.5968 46.0814 41.1593 46.647 41.7125C47.0751 42.1312 47.497 42.5562 47.9189 42.9844C48.3439 43.4156 48.7564 43.8593 49.2095 44.2656C49.3095 44.3562 49.4501 44.45 49.397 44.6312C48.6845 44.6312 47.972 44.6312 47.2626 44.6312V44.6218Z" fill="#4591BF"/>
<path d="M49.3969 44.6219C49.3437 44.425 49.1875 44.3063 49.0531 44.1719C48.5031 43.6219 47.9531 43.0719 47.4031 42.5219C46.9656 42.0844 46.5406 41.6406 46.0906 41.2156C45.5562 40.7094 45.075 40.1531 44.5281 39.6625C44.0937 39.2719 43.7375 38.8094 43.2844 38.4344C42.975 38.1781 42.7281 37.85 42.4406 37.5656C42.0906 37.2156 41.7156 36.8875 41.3719 36.5344C41.0437 36.1969 40.7375 35.8406 40.3719 35.5406C40.3219 35.5 40.2687 35.4531 40.2719 35.375C40.9844 35.375 41.6969 35.375 42.4062 35.375C42.4062 35.4688 42.4781 35.5188 42.5375 35.5719C43.1781 36.15 43.7437 36.8 44.375 37.3875C44.6844 37.675 44.9625 38.0094 45.275 38.2938C45.7344 38.7094 46.1281 39.1844 46.5812 39.6031C46.8844 39.8813 47.1625 40.2031 47.4656 40.4844C47.6969 40.7 47.8812 40.9562 48.1406 41.15C48.3312 41.2906 48.4687 41.5031 48.6406 41.675C49.1281 42.1656 49.6062 42.6687 50.1125 43.1375C50.4781 43.4781 50.7906 43.875 51.1844 44.1906C51.3187 44.3 51.45 44.4469 51.525 44.6219C50.8125 44.6219 50.1031 44.6219 49.3906 44.6219H49.3969Z" fill="#4096BB"/>
<path d="M43.3031 44.625C43.1875 44.3875 42.9593 44.2563 42.7843 44.075C42.5156 43.7938 42.2593 43.5 41.9718 43.2344C41.45 42.7531 40.9812 42.2188 40.4718 41.7281C40.2031 41.4688 39.9062 41.2375 39.6718 40.9406C39.5093 40.7344 39.3 40.5625 39.1156 40.375C38.7406 40 38.3625 39.6281 38 39.2438C37.8031 39.0344 37.5843 38.8531 37.3843 38.65C37.0812 38.3406 36.7781 38.0344 36.4718 37.7281C35.9625 37.2156 35.4625 36.6969 34.9343 36.2C34.7187 35.9969 34.5218 35.7813 34.3156 35.5688C34.2593 35.5125 34.1843 35.4656 34.1843 35.3719C34.8656 35.3719 35.55 35.3719 36.2312 35.3719C36.325 35.6625 36.5781 35.8188 36.7781 36.0188C37.0875 36.3281 37.4 36.6375 37.7093 36.9469C37.875 37.1125 38.0343 37.2844 38.2031 37.45C38.8187 38.0688 39.4374 38.6844 40.0562 39.3031C40.4093 39.6563 40.7562 40.0188 41.1187 40.3625C41.6187 40.8375 42.0937 41.3375 42.5812 41.825C43.1937 42.4406 43.8437 43.0219 44.4343 43.6563C44.7281 43.9719 45.1156 44.2031 45.3031 44.6156C44.6375 44.6156 43.9687 44.6156 43.3031 44.6156V44.625Z" fill="#4C8BC5"/>
<path d="M34.45 21.3594C35.2062 21.3594 35.9625 21.3594 36.7187 21.3594C37.0375 21.6375 37.3187 21.9531 37.6156 22.25C38.025 22.6594 38.425 23.0719 38.8468 23.4687C39.2093 23.8062 39.5375 24.1781 39.8906 24.5219C40.4281 25.0406 40.9437 25.5813 41.475 26.1062C42.0125 26.6375 42.5531 27.1625 43.0656 27.7156C43.1531 27.8094 43.2531 27.8844 43.3437 27.9719C44.1156 28.7281 44.8656 29.5031 45.6312 30.2656C45.7281 30.3594 45.8531 30.4469 45.8375 30.6125C45.1562 30.6125 44.475 30.6125 43.7937 30.6125C43.6656 30.6125 43.5937 30.5719 43.5062 30.4656C43.2843 30.1937 43.0343 29.9437 42.7781 29.7031C42.3625 29.3125 41.9718 28.8969 41.5656 28.4969C41.1031 28.0437 40.6656 27.5656 40.1781 27.1375C39.9218 26.9125 39.6906 26.6531 39.4531 26.4062C38.8875 25.8156 38.3062 25.2375 37.7281 24.6594C37.2343 24.1656 36.7437 23.6687 36.2468 23.1781C35.8375 22.7687 35.4312 22.3562 35.0062 21.9625C34.8093 21.7813 34.6156 21.5781 34.45 21.3594Z" fill="#30A4AF"/>
<path d="M45.8375 30.6125C45.7562 30.4719 45.6437 30.3531 45.5312 30.2375C44.9562 29.6437 44.3781 29.0469 43.7844 28.4719C43.0938 27.8 42.4156 27.1187 41.7312 26.4375C41.2187 25.9281 40.7125 25.4156 40.2063 24.9031C39.8469 24.5406 39.5188 24.1438 39.1219 23.8188C38.9875 23.7063 38.8688 23.575 38.7438 23.45C38.0906 22.7969 37.4406 22.1437 36.7875 21.4938C36.75 21.4563 36.7188 21.4156 36.7188 21.3594C37.3719 21.3594 38.025 21.3594 38.675 21.3594C38.6969 21.4125 38.7031 21.4906 38.7406 21.5188C39.0375 21.7281 39.2313 22.0406 39.5094 22.2719C39.7094 22.4406 39.8625 22.6625 40.0562 22.8437C40.4375 23.2 40.8156 23.5656 41.175 23.9438C41.6156 24.4094 42.0969 24.8375 42.5344 25.3063C42.7969 25.5875 43.0844 25.8594 43.3594 26.1313C43.8 26.5719 44.2875 26.9687 44.6781 27.4625C44.7781 27.5875 44.925 27.6719 45.0375 27.7875C45.5375 28.2969 46.0281 28.8156 46.5312 29.3219C46.85 29.6437 47.1812 29.95 47.5125 30.2625C47.6187 30.3625 47.6562 30.5031 47.7469 30.6094C47.1094 30.6094 46.4719 30.6094 45.8344 30.6094L45.8375 30.6125Z" fill="#2CA8AD"/>
</g>
<defs>
<clipPath id="clip0_177_2355">
<rect width="80" height="80" fill="white"/>
</clipPath>
</defs>
</svg>
