<svg width="1817" height="940" viewBox="0 0 1817 940" fill="none" xmlns="http://www.w3.org/2000/svg">
<g filter="url(#filter0_f_2697_906)">
<path d="M504.731 523.902C516.328 682.095 738.501 698.606 848.138 687.087C975.103 666.609 1033.09 487.426 1126.56 499.585C1220.04 511.743 991.6 815.075 1387.49 597.495C1783.39 379.916 1420.98 409.993 1282.52 296.084C1144.06 182.174 1021.59 356.878 859.636 438.15C697.68 519.422 611.202 287.764 504.731 255.127C398.26 222.49 230.806 353.038 251.8 438.15C272.794 523.262 490.235 326.161 504.731 523.902Z" fill="url(#paint0_linear_2697_906)"/>
</g>
<defs>
<filter id="filter0_f_2697_906" x="0" y="0" width="1817" height="940" filterUnits="userSpaceOnUse" color-interpolation-filters="sRGB">
<feFlood flood-opacity="0" result="BackgroundImageFix"/>
<feBlend mode="normal" in="SourceGraphic" in2="BackgroundImageFix" result="shape"/>
<feGaussianBlur stdDeviation="125" result="effect1_foregroundBlur_2697_906"/>
</filter>
<linearGradient id="paint0_linear_2697_906" x1="250" y1="470" x2="1567" y2="470" gradientUnits="userSpaceOnUse">
<stop stop-color="#9587AB"/>
<stop offset="1" stop-color="#232B4D"/>
</linearGradient>
</defs>
</svg>
